<svg xmlns="http://www.w3.org/2000/svg" width="347.873291015625" height="341.5484924316406" viewBox="-63.95923614501953 -58.968955993652344 347.873291015625 341.5484924316406"><title>Neo4j Graph Visualization</title><desc>Created using Neo4j (http://www.neo4j.com/)</desc><g class="layer relationships"><g class="relationship" transform="translate(229.997473909145 25.436524171828125) rotate(436.7019816822393)"><path class="outline" fill="#A5ABB6" stroke="none" d="M 25 0.5 L 26.326819076610022 0.5 L 26.326819076610022 -0.5 L 25 -0.5 Z M 74.99869407661002 0.5 L 76.32551315322004 0.5 L 76.32551315322004 3.5 L 83.32551315322004 0 L 76.32551315322004 -3.5 L 76.32551315322004 -0.5 L 74.99869407661002 -0.5 Z"/><text text-anchor="middle" pointer-events="none" font-size="8px" fill="#000000" x="50.66275657661002" y="3" font-family="sans-serif">DESTINA…</text></g><g class="relationship" transform="translate(229.997473909145 25.436524171828125) rotate(210.71435900862923)"><path class="outline" fill="#A5ABB6" stroke="none" d="M 25 0.5 L 33.515787935495815 0.5 L 33.515787935495815 -0.5 L 25 -0.5 Z M 67.96110043549581 0.5 L 76.47688837099163 0.5 L 76.47688837099163 3.5 L 83.47688837099163 0 L 76.47688837099163 -3.5 L 76.47688837099163 -0.5 L 67.96110043549581 -0.5 Z"/><text text-anchor="middle" pointer-events="none" font-size="8px" fill="#000000" x="50.738444185495815" y="3" transform="rotate(180 50.738444185495815 0)" font-family="sans-serif">ORIGIN</text></g><g class="relationship" transform="translate(28.433913120748215 -14.204928508550294) rotate(351.71850453981756)"><path class="outline" fill="#A5ABB6" stroke="none" d="M 25 0.5 L 26.886359064452364 0.5 L 26.886359064452364 -0.5 L 25 -0.5 Z M 75.55823406445236 0.5 L 77.44459312890473 0.5 L 77.44459312890473 3.5 L 84.44459312890473 0 L 77.44459312890473 -3.5 L 77.44459312890473 -0.5 L 75.55823406445236 -0.5 Z"/><text text-anchor="middle" pointer-events="none" font-size="8px" fill="#000000" x="51.222296564452364" y="3" font-family="sans-serif">DESTINA…</text></g><g class="relationship" transform="translate(28.433913120748215 -14.204928508550294) rotate(485.55311486263537)"><path class="outline" fill="#A5ABB6" stroke="none" d="M 25 0.5 L 33.78963109543809 0.5 L 33.78963109543809 -0.5 L 25 -0.5 Z M 68.2349435954381 0.5 L 77.02457469087618 0.5 L 77.02457469087618 3.5 L 84.02457469087618 0 L 77.02457469087618 -3.5 L 77.02457469087618 -0.5 L 68.2349435954381 -0.5 Z"/><text text-anchor="middle" pointer-events="none" font-size="8px" fill="#000000" x="51.01228734543809" y="3" transform="rotate(180 51.01228734543809 0)" font-family="sans-serif">ORIGIN</text></g><g class="relationship" transform="translate(-21.31285736653243 182.05580252178493) rotate(262.76944497863184)"><path class="outline" fill="#A5ABB6" stroke="none" d="M 25 0.5 L 33.48888000256512 0.5 L 33.48888000256512 -0.5 L 25 -0.5 Z M 67.93419250256511 0.5 L 76.42307250513024 0.5 L 76.42307250513024 3.5 L 83.42307250513024 0 L 76.42307250513024 -3.5 L 76.42307250513024 -0.5 L 67.93419250256511 -0.5 Z"/><text text-anchor="middle" pointer-events="none" font-size="8px" fill="#000000" x="50.71153625256512" y="3" transform="rotate(180 50.71153625256512 0)" font-family="sans-serif">ORIGIN</text></g><g class="relationship" transform="translate(-21.31285736653243 182.05580252178493) rotate(401.6089757598688)"><path class="outline" fill="#A5ABB6" stroke="none" d="M 25 0.5 L 26.018767762533308 0.5 L 26.018767762533308 -0.5 L 25 -0.5 Z M 74.69064276253332 0.5 L 75.70941052506662 0.5 L 75.70941052506662 3.5 L 82.70941052506662 0 L 75.70941052506662 -3.5 L 75.70941052506662 -0.5 L 74.69064276253332 -0.5 Z"/><text text-anchor="middle" pointer-events="none" font-size="8px" fill="#000000" x="50.35470526253331" y="3" font-family="sans-serif">DESTINA…</text></g></g><g class="layer nodes"><g class="node" transform="translate(59.220830481274916,253.57952052699812)"><circle class="outline" cx="0" cy="0" r="25" fill="#ECB5C9" stroke="#da7298" stroke-width="2px"/><text text-anchor="middle" pointer-events="none" font-family="sans-serif" dy="1.5625" font-size="25" fill="#2A2C34"/><text text-anchor="middle" pointer-events="none" x="0" y="5" font-size="10px" fill="#2A2C34" font-family="sans-serif"> DAY</text></g><g class="node" transform="translate(254.91408357355027,130.85748680611692)"><circle class="outline" cx="0" cy="0" r="25" fill="#ECB5C9" stroke="#da7298" stroke-width="2px"/><text text-anchor="middle" pointer-events="none" font-family="sans-serif" dy="1.5625" font-size="25" fill="#2A2C34"/><text text-anchor="middle" pointer-events="none" x="0" y="5" font-size="10px" fill="#2A2C34" font-family="sans-serif"> LAX</text></g><g class="node" transform="translate(229.997473909145,25.436524171828125)"><circle class="outline" cx="0" cy="0" r="25" fill="#4C8EDA" stroke="#2870c2" stroke-width="2px"/><text text-anchor="middle" pointer-events="none" font-family="sans-serif" dy="1.5625" font-size="25" fill="#FFFFFF"/><text text-anchor="middle" pointer-events="none" x="0" y="5" font-size="10px" fill="#FFFFFF" font-family="sans-serif"> 11/30/20…</text></g><g class="node" transform="translate(136.73725737595004,-29.96895681005823)"><circle class="outline" cx="0" cy="0" r="25" fill="#ECB5C9" stroke="#da7298" stroke-width="2px"/><text text-anchor="middle" pointer-events="none" font-family="sans-serif" dy="1.5625" font-size="25" fill="#2A2C34"/><text text-anchor="middle" pointer-events="none" x="0" y="5" font-size="10px" fill="#2A2C34" font-family="sans-serif"> ORD</text></g><g class="node" transform="translate(28.433913120748215,-14.204928508550294)"><circle class="outline" cx="0" cy="0" r="25" fill="#4C8EDA" stroke="#2870c2" stroke-width="2px"/><text text-anchor="middle" pointer-events="none" font-family="sans-serif" dy="1.5625" font-size="25" fill="#FFFFFF"/><text text-anchor="middle" pointer-events="none" x="0" y="5" font-size="10px" fill="#FFFFFF" font-family="sans-serif"> 11/29/20…</text></g><g class="node" transform="translate(-34.95923424673726,74.49494045060153)"><circle class="outline" cx="0" cy="0" r="25" fill="#ECB5C9" stroke="#da7298" stroke-width="2px"/><text text-anchor="middle" pointer-events="none" font-family="sans-serif" dy="1.5625" font-size="25" fill="#2A2C34"/><text text-anchor="middle" pointer-events="none" x="0" y="5" font-size="10px" fill="#2A2C34" font-family="sans-serif"> MSP</text></g><g class="node" transform="translate(-21.31285736653243,182.05580252178493)"><circle class="outline" cx="0" cy="0" r="25" fill="#4C8EDA" stroke="#2870c2" stroke-width="2px"/><text text-anchor="middle" pointer-events="none" font-family="sans-serif" dy="1.5625" font-size="25" fill="#FFFFFF"/><text text-anchor="middle" pointer-events="none" x="0" y="5" font-size="10px" fill="#FFFFFF" font-family="sans-serif"> 11/25/20…</text></g></g></svg>