<svg xmlns="http://www.w3.org/2000/svg" width="1112.262451171875" height="908.1881103515625" viewBox="-374.17608642578125 -399.0765686035156 1112.262451171875 908.1881103515625"><title>Neo4j Graph Visualization</title><desc>Created using Neo4j (http://www.neo4j.com/)</desc><g class="layer relationships"><g class="relationship" transform="translate(-92.27380728905588 168.55186670544998) rotate(496.0013989329636)"><path class="outline" fill="#A5ABB6" stroke="none" d="M 25 0.5 L 56.8771584367897 0.5 L 56.8771584367897 -0.5 L 25 -0.5 Z M 116.0646584367897 0.5 L 147.9418168735794 0.5 L 147.9418168735794 3.5 L 154.9418168735794 0 L 147.9418168735794 -3.5 L 147.9418168735794 -0.5 L 116.0646584367897 -0.5 Z"/><text text-anchor="middle" pointer-events="none" font-size="8px" fill="#000000" x="86.4709084367897" y="3" transform="rotate(180 86.4709084367897 0)" font-family="sans-serif">DESTINATION</text></g><g class="relationship" transform="translate(-92.27380728905588 168.55186670544998) rotate(332.6082004111606)"><path class="outline" fill="#A5ABB6" stroke="none" d="M 25 0.5 L 90.58351441070492 0.5 L 90.58351441070492 -0.5 L 25 -0.5 Z M 125.02882691070492 0.5 L 190.61234132140984 0.5 L 190.61234132140984 3.5 L 197.61234132140984 0 L 190.61234132140984 -3.5 L 190.61234132140984 -0.5 L 125.02882691070492 -0.5 Z"/><text text-anchor="middle" pointer-events="none" font-size="8px" fill="#000000" x="107.80617066070492" y="3" font-family="sans-serif">ORIGIN</text></g><g class="relationship" transform="translate(301.6031024057719 115.9648785105242) rotate(194.24902148867432)"><path class="outline" fill="#A5ABB6" stroke="none" d="M 25 0.5 L 68.132250241131 0.5 L 68.132250241131 -0.5 L 25 -0.5 Z M 127.319750241131 0.5 L 170.452000482262 0.5 L 170.452000482262 3.5 L 177.452000482262 0 L 170.452000482262 -3.5 L 170.452000482262 -0.5 L 127.319750241131 -0.5 Z"/><text text-anchor="middle" pointer-events="none" font-size="8px" fill="#000000" x="97.726000241131" y="3" transform="rotate(180 97.726000241131 0)" font-family="sans-serif">DESTINATION</text></g><g class="relationship" transform="translate(301.6031024057719 115.9648785105242) rotate(371.83153999859496)"><path class="outline" fill="#A5ABB6" stroke="none" d="M 25 0.5 L 89.3654695390314 0.5 L 89.3654695390314 -0.5 L 25 -0.5 Z M 123.8107820390314 0.5 L 188.1762515780628 0.5 L 188.1762515780628 3.5 L 195.1762515780628 0 L 188.1762515780628 -3.5 L 188.1762515780628 -0.5 L 123.8107820390314 -0.5 Z"/><text text-anchor="middle" pointer-events="none" font-size="8px" fill="#000000" x="106.5881257890314" y="3" font-family="sans-serif">ORIGIN</text></g><g class="relationship" transform="translate(692.4355434099353 183.5184435566594) rotate(187.28359160838522)"><path class="outline" fill="#A5ABB6" stroke="none" d="M 25 0.5 L 67.65745462068298 0.5 L 67.65745462068298 -0.5 L 25 -0.5 Z M 102.10276712068298 0.5 L 144.76022174136597 0.5 L 144.76022174136597 3.5 L 151.76022174136597 0 L 144.76022174136597 -3.5 L 144.76022174136597 -0.5 L 102.10276712068298 -0.5 Z"/><text text-anchor="middle" pointer-events="none" font-size="8px" fill="#000000" x="84.88011087068298" y="3" transform="rotate(180 84.88011087068298 0)" font-family="sans-serif">ORIGIN</text></g><g class="relationship" transform="translate(692.4355434099353 183.5184435566594) rotate(442.45230883008713)"><path class="outline" fill="#A5ABB6" stroke="none" d="M 25 0.5 L 30.28873754473974 0.5 L 30.28873754473974 -0.5 L 25 -0.5 Z M 89.47623754473975 0.5 L 94.76497508947948 0.5 L 94.76497508947948 3.5 L 101.76497508947948 0 L 94.76497508947948 -3.5 L 94.76497508947948 -0.5 L 89.47623754473975 -0.5 Z"/><text text-anchor="middle" pointer-events="none" font-size="8px" fill="#000000" x="59.88248754473974" y="3" font-family="sans-serif">DESTINATION</text></g><g class="relationship" transform="translate(-1.484918032842693 358.0399217275549) rotate(196.3222868955661)"><path class="outline" fill="#A5ABB6" stroke="none" d="M 25 0.5 L 94.01744962817587 0.5 L 94.01744962817587 -0.5 L 25 -0.5 Z M 128.46276212817588 0.5 L 197.48021175635174 0.5 L 197.48021175635174 3.5 L 204.48021175635174 0 L 197.48021175635174 -3.5 L 197.48021175635174 -0.5 L 128.46276212817588 -0.5 Z"/><text text-anchor="middle" pointer-events="none" font-size="8px" fill="#000000" x="111.24010587817587" y="3" transform="rotate(180 111.24010587817587 0)" font-family="sans-serif">ORIGIN</text></g><g class="relationship" transform="translate(-1.484918032842693 358.0399217275549) rotate(348.48846103605035)"><path class="outline" fill="#A5ABB6" stroke="none" d="M 25 0.5 L 91.7629713908051 0.5 L 91.7629713908051 -0.5 L 25 -0.5 Z M 150.9504713908051 0.5 L 217.7134427816102 0.5 L 217.7134427816102 3.5 L 224.7134427816102 0 L 217.7134427816102 -3.5 L 217.7134427816102 -0.5 L 150.9504713908051 -0.5 Z"/><text text-anchor="middle" pointer-events="none" font-size="8px" fill="#000000" x="121.3567213908051" y="3" font-family="sans-serif">DESTINATION</text></g><g class="relationship" transform="translate(165.19218591035636 214.47317942980874) rotate(410.229537247992)"><path class="outline" fill="#A5ABB6" stroke="none" d="M 25 0.5 L 27.881382366532065 0.5 L 27.881382366532065 -0.5 L 25 -0.5 Z M 87.06888236653207 0.5 L 89.95026473306413 0.5 L 89.95026473306413 3.5 L 96.95026473306413 0 L 89.95026473306413 -3.5 L 89.95026473306413 -0.5 L 87.06888236653207 -0.5 Z"/><text text-anchor="middle" pointer-events="none" font-size="8px" fill="#000000" x="57.475132366532065" y="3" font-family="sans-serif">DESTINATION</text></g><g class="relationship" transform="translate(165.19218591035636 214.47317942980874) rotate(248.03993860164826)"><path class="outline" fill="#A5ABB6" stroke="none" d="M 25 0.5 L 59.24931833695963 0.5 L 59.24931833695963 -0.5 L 25 -0.5 Z M 93.69463083695963 0.5 L 127.94394917391926 0.5 L 127.94394917391926 3.5 L 134.94394917391926 0 L 127.94394917391926 -3.5 L 127.94394917391926 -0.5 L 93.69463083695963 -0.5 Z"/><text text-anchor="middle" pointer-events="none" font-size="8px" fill="#000000" x="76.47197458695963" y="3" transform="rotate(180 76.47197458695963 0)" font-family="sans-serif">ORIGIN</text></g><g class="relationship" transform="translate(220.73961931968452 191.96410534781108) rotate(439.0614205174568)"><path class="outline" fill="#A5ABB6" stroke="none" d="M 25 0.5 L 26.102620698263202 0.5 L 26.102620698263202 -0.5 L 25 -0.5 Z M 85.2901206982632 0.5 L 86.3927413965264 0.5 L 86.3927413965264 3.5 L 93.3927413965264 0 L 86.3927413965264 -3.5 L 86.3927413965264 -0.5 L 85.2901206982632 -0.5 Z"/><text text-anchor="middle" pointer-events="none" font-size="8px" fill="#000000" x="55.6963706982632" y="3" font-family="sans-serif">DESTINATION</text></g><g class="relationship" transform="translate(220.73961931968452 191.96410534781108) rotate(227.4856328326204)"><path class="outline" fill="#A5ABB6" stroke="none" d="M 25 0.5 L 64.63126628366624 0.5 L 64.63126628366624 -0.5 L 25 -0.5 Z M 99.07657878366624 0.5 L 138.70784506733247 0.5 L 138.70784506733247 3.5 L 145.70784506733247 0 L 138.70784506733247 -3.5 L 138.70784506733247 -0.5 L 99.07657878366624 -0.5 Z"/><text text-anchor="middle" pointer-events="none" font-size="8px" fill="#000000" x="81.85392253366624" y="3" transform="rotate(180 81.85392253366624 0)" font-family="sans-serif">ORIGIN</text></g><g class="relationship" transform="translate(326.6843787509799 39.671038367134) rotate(467.26881610841895)"><path class="outline" fill="#A5ABB6" stroke="none" d="M 25 0.5 L 119.88286303112608 0.5 L 119.88286303112608 -0.5 L 25 -0.5 Z M 154.32817553112608 0.5 L 249.21103856225216 0.5 L 249.21103856225216 3.5 L 256.21103856225216 0 L 249.21103856225216 -3.5 L 249.21103856225216 -0.5 L 154.32817553112608 -0.5 Z"/><text text-anchor="middle" pointer-events="none" font-size="8px" fill="#000000" x="137.10551928112608" y="3" transform="rotate(180 137.10551928112608 0)" font-family="sans-serif">ORIGIN</text></g><g class="relationship" transform="translate(326.6843787509799 39.671038367134) rotate(259.1241228708801)"><path class="outline" fill="#A5ABB6" stroke="none" d="M 25 0.5 L 79.43723584938161 0.5 L 79.43723584938161 -0.5 L 25 -0.5 Z M 138.6247358493816 0.5 L 193.06197169876322 0.5 L 193.06197169876322 3.5 L 200.06197169876322 0 L 193.06197169876322 -3.5 L 193.06197169876322 -0.5 L 138.6247358493816 -0.5 Z"/><text text-anchor="middle" pointer-events="none" font-size="8px" fill="#000000" x="109.03098584938161" y="3" transform="rotate(180 109.03098584938161 0)" font-family="sans-serif">DESTINATION</text></g><g class="relationship" transform="translate(453.6499354861252 -41.78295493305203) rotate(219.4793717932988)"><path class="outline" fill="#A5ABB6" stroke="none" d="M 25 0.5 L 76.66198111653719 0.5 L 76.66198111653719 -0.5 L 25 -0.5 Z M 135.8494811165372 0.5 L 187.51146223307438 0.5 L 187.51146223307438 3.5 L 194.51146223307438 0 L 187.51146223307438 -3.5 L 187.51146223307438 -0.5 L 135.8494811165372 -0.5 Z"/><text text-anchor="middle" pointer-events="none" font-size="8px" fill="#000000" x="106.25573111653719" y="3" transform="rotate(180 106.25573111653719 0)" font-family="sans-serif">DESTINATION</text></g><g class="relationship" transform="translate(453.6499354861252 -41.78295493305203) rotate(432.6336108244015)"><path class="outline" fill="#A5ABB6" stroke="none" d="M 25 0.5 L 85.56837883023488 0.5 L 85.56837883023488 -0.5 L 25 -0.5 Z M 120.01369133023488 0.5 L 180.58207016046975 0.5 L 180.58207016046975 3.5 L 187.58207016046975 0 L 180.58207016046975 -3.5 L 180.58207016046975 -0.5 L 120.01369133023488 -0.5 Z"/><text text-anchor="middle" pointer-events="none" font-size="8px" fill="#000000" x="102.79103508023488" y="3" font-family="sans-serif">ORIGIN</text></g><g class="relationship" transform="translate(579.6202530334511 320.01518903916343) rotate(248.52382568968557)"><path class="outline" fill="#A5ABB6" stroke="none" d="M 25 0.5 L 64.65862672529232 0.5 L 64.65862672529232 -0.5 L 25 -0.5 Z M 99.10393922529232 0.5 L 138.76256595058464 0.5 L 138.76256595058464 3.5 L 145.76256595058464 0 L 138.76256595058464 -3.5 L 138.76256595058464 -0.5 L 99.10393922529232 -0.5 Z"/><text text-anchor="middle" pointer-events="none" font-size="8px" fill="#000000" x="81.88128297529232" y="3" transform="rotate(180 81.88128297529232 0)" font-family="sans-serif">ORIGIN</text></g><g class="relationship" transform="translate(579.6202530334511 320.01518903916343) rotate(355.21823320974636)"><path class="outline" fill="#A5ABB6" stroke="none" d="M 25 0.5 L 31.865367536338923 0.5 L 31.865367536338923 -0.5 L 25 -0.5 Z M 91.05286753633892 0.5 L 97.91823507267785 0.5 L 97.91823507267785 3.5 L 104.91823507267785 0 L 97.91823507267785 -3.5 L 97.91823507267785 -0.5 L 91.05286753633892 -0.5 Z"/><text text-anchor="middle" pointer-events="none" font-size="8px" fill="#000000" x="61.45911753633892" y="3" font-family="sans-serif">DESTINATION</text></g><g class="relationship" transform="translate(648.0959780280525 232.5416139593549) rotate(208.60421243737733)"><path class="outline" fill="#A5ABB6" stroke="none" d="M 25 0.5 L 53.87992504494956 0.5 L 53.87992504494956 -0.5 L 25 -0.5 Z M 88.32523754494956 0.5 L 117.20516258989912 0.5 L 117.20516258989912 3.5 L 124.20516258989912 0 L 117.20516258989912 -3.5 L 117.20516258989912 -0.5 L 88.32523754494956 -0.5 Z"/><text text-anchor="middle" pointer-events="none" font-size="8px" fill="#000000" x="71.10258129494956" y="3" transform="rotate(180 71.10258129494956 0)" font-family="sans-serif">ORIGIN</text></g><g class="relationship" transform="translate(648.0959780280525 232.5416139593549) rotate(411.4884035113516)"><path class="outline" fill="#A5ABB6" stroke="none" d="M 25 0.5 L 26.695300912284587 0.5 L 26.695300912284587 -0.5 L 25 -0.5 Z M 64.25389466228458 0.5 L 65.94919557456917 0.5 L 65.94919557456917 3.5 L 72.94919557456917 0 L 65.94919557456917 -3.5 L 65.94919557456917 -0.5 L 64.25389466228458 -0.5 Z"/><text text-anchor="middle" pointer-events="none" font-size="8px" fill="#000000" x="45.47459778728459" y="3" font-family="sans-serif">DESTI…</text></g><g class="relationship" transform="translate(633.2772614407841 174.5072034984075) rotate(186.57884788906034)"><path class="outline" fill="#A5ABB6" stroke="none" d="M 25 0.5 L 37.75019214880939 0.5 L 37.75019214880939 -0.5 L 25 -0.5 Z M 72.19550464880939 0.5 L 84.94569679761878 0.5 L 84.94569679761878 3.5 L 91.94569679761878 0 L 84.94569679761878 -3.5 L 84.94569679761878 -0.5 L 72.19550464880939 -0.5 Z"/><text text-anchor="middle" pointer-events="none" font-size="8px" fill="#000000" x="54.97284839880939" y="3" transform="rotate(180 54.97284839880939 0)" font-family="sans-serif">ORIGIN</text></g><g class="relationship" transform="translate(633.2772614407841 174.5072034984075) rotate(420.62521308238524)"><path class="outline" fill="#A5ABB6" stroke="none" d="M 25 0.5 L 44.1803545704157 0.5 L 44.1803545704157 -0.5 L 25 -0.5 Z M 103.3678545704157 0.5 L 122.5482091408314 0.5 L 122.5482091408314 3.5 L 129.5482091408314 0 L 122.5482091408314 -3.5 L 122.5482091408314 -0.5 L 103.3678545704157 -0.5 Z"/><text text-anchor="middle" pointer-events="none" font-size="8px" fill="#000000" x="73.7741045704157" y="3" font-family="sans-serif">DESTINATION</text></g><g class="relationship" transform="translate(327.84433934793094 169.72816715203294) rotate(204.9697647821389)"><path class="outline" fill="#A5ABB6" stroke="none" d="M 25 0.5 L 89.60746129787108 0.5 L 89.60746129787108 -0.5 L 25 -0.5 Z M 148.79496129787108 0.5 L 213.40242259574217 0.5 L 213.40242259574217 3.5 L 220.40242259574217 0 L 213.40242259574217 -3.5 L 213.40242259574217 -0.5 L 148.79496129787108 -0.5 Z"/><text text-anchor="middle" pointer-events="none" font-size="8px" fill="#000000" x="119.20121129787108" y="3" transform="rotate(180 119.20121129787108 0)" font-family="sans-serif">DESTINATION</text></g><g class="relationship" transform="translate(327.84433934793094 169.72816715203294) rotate(357.39233922857613)"><path class="outline" fill="#A5ABB6" stroke="none" d="M 25 0.5 L 74.00408247712436 0.5 L 74.00408247712436 -0.5 L 25 -0.5 Z M 108.44939497712436 0.5 L 157.4534774542487 0.5 L 157.4534774542487 3.5 L 164.4534774542487 0 L 157.4534774542487 -3.5 L 157.4534774542487 -0.5 L 108.44939497712436 -0.5 Z"/><text text-anchor="middle" pointer-events="none" font-size="8px" fill="#000000" x="91.22673872712436" y="3" font-family="sans-serif">ORIGIN</text></g><g class="relationship" transform="translate(361.186154439171 119.64949243597906) rotate(191.81603033004444)"><path class="outline" fill="#A5ABB6" stroke="none" d="M 25 0.5 L 97.57849696771083 0.5 L 97.57849696771083 -0.5 L 25 -0.5 Z M 156.76599696771083 0.5 L 229.34449393542167 0.5 L 229.34449393542167 3.5 L 236.34449393542167 0 L 229.34449393542167 -3.5 L 229.34449393542167 -0.5 L 156.76599696771083 -0.5 Z"/><text text-anchor="middle" pointer-events="none" font-size="8px" fill="#000000" x="127.17224696771083" y="3" transform="rotate(180 127.17224696771083 0)" font-family="sans-serif">DESTINATION</text></g><g class="relationship" transform="translate(361.186154439171 119.64949243597906) rotate(374.89083382125443)"><path class="outline" fill="#A5ABB6" stroke="none" d="M 25 0.5 L 59.944100278515194 0.5 L 59.944100278515194 -0.5 L 25 -0.5 Z M 94.3894127785152 0.5 L 129.3335130570304 0.5 L 129.3335130570304 3.5 L 136.3335130570304 0 L 129.3335130570304 -3.5 L 129.3335130570304 -0.5 L 94.3894127785152 -0.5 Z"/><text text-anchor="middle" pointer-events="none" font-size="8px" fill="#000000" x="77.1667565285152" y="3" font-family="sans-serif">ORIGIN</text></g><g class="relationship" transform="translate(-150.53594335386194 420.43409798386347) rotate(240.7087942330748)"><path class="outline" fill="#A5ABB6" stroke="none" d="M 25 0.5 L 52.02178022995351 0.5 L 52.02178022995351 -0.5 L 25 -0.5 Z M 86.4670927299535 0.5 L 113.48887295990701 0.5 L 113.48887295990701 3.5 L 120.48887295990701 0 L 113.48887295990701 -3.5 L 113.48887295990701 -0.5 L 86.4670927299535 -0.5 Z"/><text text-anchor="middle" pointer-events="none" font-size="8px" fill="#000000" x="69.2444364799535" y="3" transform="rotate(180 69.2444364799535 0)" font-family="sans-serif">ORIGIN</text></g><g class="relationship" transform="translate(-150.53594335386194 420.43409798386347) rotate(361.5909440554291)"><path class="outline" fill="#A5ABB6" stroke="none" d="M 25 0.5 L 61.592782694079176 0.5 L 61.592782694079176 -0.5 L 25 -0.5 Z M 120.78028269407918 0.5 L 157.37306538815835 0.5 L 157.37306538815835 3.5 L 164.37306538815835 0 L 157.37306538815835 -3.5 L 157.37306538815835 -0.5 L 120.78028269407918 -0.5 Z"/><text text-anchor="middle" pointer-events="none" font-size="8px" fill="#000000" x="91.18653269407918" y="3" font-family="sans-serif">DESTINATION</text></g><g class="relationship" transform="translate(181.00338651146487 116.1964577745481) rotate(474.68277991553214)"><path class="outline" fill="#A5ABB6" stroke="none" d="M 25 0.5 L 149.58542167320172 0.5 L 149.58542167320172 -0.5 L 25 -0.5 Z M 184.03073417320172 0.5 L 308.61615584640344 0.5 L 308.61615584640344 3.5 L 315.61615584640344 0 L 308.61615584640344 -3.5 L 308.61615584640344 -0.5 L 184.03073417320172 -0.5 Z"/><text text-anchor="middle" pointer-events="none" font-size="8px" fill="#000000" x="166.80807792320172" y="3" transform="rotate(180 166.80807792320172 0)" font-family="sans-serif">ORIGIN</text></g><g class="relationship" transform="translate(181.00338651146487 116.1964577745481) rotate(289.131235675309)"><path class="outline" fill="#A5ABB6" stroke="none" d="M 25 0.5 L 124.37566632830652 0.5 L 124.37566632830652 -0.5 L 25 -0.5 Z M 183.56316632830652 0.5 L 282.93883265661304 0.5 L 282.93883265661304 3.5 L 289.93883265661304 0 L 282.93883265661304 -3.5 L 282.93883265661304 -0.5 L 183.56316632830652 -0.5 Z"/><text text-anchor="middle" pointer-events="none" font-size="8px" fill="#000000" x="153.96941632830652" y="3" font-family="sans-serif">DESTINATION</text></g><g class="relationship" transform="translate(-145.9937868322534 480.11155041271377) rotate(247.90888736822433)"><path class="outline" fill="#A5ABB6" stroke="none" d="M 25 0.5 L 79.95043727157842 0.5 L 79.95043727157842 -0.5 L 25 -0.5 Z M 114.39574977157842 0.5 L 169.34618704315685 0.5 L 169.34618704315685 3.5 L 176.34618704315685 0 L 169.34618704315685 -3.5 L 169.34618704315685 -0.5 L 114.39574977157842 -0.5 Z"/><text text-anchor="middle" pointer-events="none" font-size="8px" fill="#000000" x="97.17309352157842" y="3" transform="rotate(180 97.17309352157842 0)" font-family="sans-serif">ORIGIN</text></g><g class="relationship" transform="translate(-145.9937868322534 480.11155041271377) rotate(343.58785549838296)"><path class="outline" fill="#A5ABB6" stroke="none" d="M 25 0.5 L 63.20915195957704 0.5 L 63.20915195957704 -0.5 L 25 -0.5 Z M 122.39665195957704 0.5 L 160.60580391915408 0.5 L 160.60580391915408 3.5 L 167.60580391915408 0 L 160.60580391915408 -3.5 L 160.60580391915408 -0.5 L 122.39665195957704 -0.5 Z"/><text text-anchor="middle" pointer-events="none" font-size="8px" fill="#000000" x="92.80290195957704" y="3" font-family="sans-serif">DESTINATION</text></g><g class="relationship" transform="translate(-150.00477077892918 -29.72511462179532) rotate(462.5073893060055)"><path class="outline" fill="#A5ABB6" stroke="none" d="M 25 0.5 L 132.4713827045705 0.5 L 132.4713827045705 -0.5 L 25 -0.5 Z M 191.6588827045705 0.5 L 299.130265409141 0.5 L 299.130265409141 3.5 L 306.130265409141 0 L 299.130265409141 -3.5 L 299.130265409141 -0.5 L 191.6588827045705 -0.5 Z"/><text text-anchor="middle" pointer-events="none" font-size="8px" fill="#000000" x="162.0651327045705" y="3" transform="rotate(180 162.0651327045705 0)" font-family="sans-serif">DESTINATION</text></g><g class="relationship" transform="translate(-150.00477077892918 -29.72511462179532) rotate(304.1525208278392)"><path class="outline" fill="#A5ABB6" stroke="none" d="M 25 0.5 L 145.77593992768323 0.5 L 145.77593992768323 -0.5 L 25 -0.5 Z M 180.22125242768323 0.5 L 300.99719235536645 0.5 L 300.99719235536645 3.5 L 307.99719235536645 0 L 300.99719235536645 -3.5 L 300.99719235536645 -0.5 L 180.22125242768323 -0.5 Z"/><text text-anchor="middle" pointer-events="none" font-size="8px" fill="#000000" x="162.99859617768323" y="3" font-family="sans-serif">ORIGIN</text></g><g class="relationship" transform="translate(198.54642945073795 -258.53586891071694) rotate(196.13737128423992)"><path class="outline" fill="#A5ABB6" stroke="none" d="M 25 0.5 L 63.395410752816105 0.5 L 63.395410752816105 -0.5 L 25 -0.5 Z M 97.8407232528161 0.5 L 136.2361340056322 0.5 L 136.2361340056322 3.5 L 143.2361340056322 0 L 136.2361340056322 -3.5 L 136.2361340056322 -0.5 L 97.8407232528161 -0.5 Z"/><text text-anchor="middle" pointer-events="none" font-size="8px" fill="#000000" x="80.6180670028161" y="3" transform="rotate(180 80.6180670028161 0)" font-family="sans-serif">ORIGIN</text></g><g class="relationship" transform="translate(198.54642945073795 -258.53586891071694) rotate(402.01746618783)"><path class="outline" fill="#A5ABB6" stroke="none" d="M 25 0.5 L 26.564145057053004 0.5 L 26.564145057053004 -0.5 L 25 -0.5 Z M 81.751645057053 0.5 L 83.31579011410601 0.5 L 83.31579011410601 3.5 L 90.31579011410601 0 L 83.31579011410601 -3.5 L 83.31579011410601 -0.5 L 81.751645057053 -0.5 Z"/><text text-anchor="middle" pointer-events="none" font-size="8px" fill="#000000" x="54.157895057053004" y="3" font-family="sans-serif">DESTINATI…</text></g><g class="relationship" transform="translate(-98.88312092896227 390.0553879993821) rotate(218.1563357360028)"><path class="outline" fill="#A5ABB6" stroke="none" d="M 25 0.5 L 57.382827415256216 0.5 L 57.382827415256216 -0.5 L 25 -0.5 Z M 91.82813991525622 0.5 L 124.21096733051243 0.5 L 124.21096733051243 3.5 L 131.21096733051243 0 L 124.21096733051243 -3.5 L 124.21096733051243 -0.5 L 91.82813991525622 -0.5 Z"/><text text-anchor="middle" pointer-events="none" font-size="8px" fill="#000000" x="74.60548366525622" y="3" transform="rotate(180 74.60548366525622 0)" font-family="sans-serif">ORIGIN</text></g><g class="relationship" transform="translate(-98.88312092896227 390.0553879993821) rotate(374.51498057318173)"><path class="outline" fill="#A5ABB6" stroke="none" d="M 25 0.5 L 37.998999537664616 0.5 L 37.998999537664616 -0.5 L 25 -0.5 Z M 97.18649953766462 0.5 L 110.18549907532923 0.5 L 110.18549907532923 3.5 L 117.18549907532923 0 L 110.18549907532923 -3.5 L 110.18549907532923 -0.5 L 97.18649953766462 -0.5 Z"/><text text-anchor="middle" pointer-events="none" font-size="8px" fill="#000000" x="67.59274953766462" y="3" font-family="sans-serif">DESTINATION</text></g><g class="relationship" transform="translate(596.1088195804311 262.42182634187554) rotate(232.05177036177673)"><path class="outline" fill="#A5ABB6" stroke="none" d="M 25 0.5 L 43.516131160530335 0.5 L 43.516131160530335 -0.5 L 25 -0.5 Z M 77.96144366053034 0.5 L 96.47757482106067 0.5 L 96.47757482106067 3.5 L 103.47757482106067 0 L 96.47757482106067 -3.5 L 96.47757482106067 -0.5 L 77.96144366053034 -0.5 Z"/><text text-anchor="middle" pointer-events="none" font-size="8px" fill="#000000" x="60.738787410530335" y="3" transform="rotate(180 60.738787410530335 0)" font-family="sans-serif">ORIGIN</text></g><g class="relationship" transform="translate(596.1088195804311 262.42182634187554) rotate(382.4854884967557)"><path class="outline" fill="#A5ABB6" stroke="none" d="M 25 0.5 L 28.042809743793754 0.5 L 28.042809743793754 -0.5 L 25 -0.5 Z M 87.23030974379375 0.5 L 90.27311948758751 0.5 L 90.27311948758751 3.5 L 97.27311948758751 0 L 90.27311948758751 -3.5 L 90.27311948758751 -0.5 L 87.23030974379375 -0.5 Z"/><text text-anchor="middle" pointer-events="none" font-size="8px" fill="#000000" x="57.636559743793754" y="3" font-family="sans-serif">DESTINATION</text></g><g class="relationship" transform="translate(-94.4169946358517 449.7979367467252) rotate(230.82999374985116)"><path class="outline" fill="#A5ABB6" stroke="none" d="M 25 0.5 L 80.04874237555984 0.5 L 80.04874237555984 -0.5 L 25 -0.5 Z M 114.49405487555984 0.5 L 169.54279725111968 0.5 L 169.54279725111968 3.5 L 176.54279725111968 0 L 169.54279725111968 -3.5 L 169.54279725111968 -0.5 L 114.49405487555984 -0.5 Z"/><text text-anchor="middle" pointer-events="none" font-size="8px" fill="#000000" x="97.27139862555984" y="3" transform="rotate(180 97.27139862555984 0)" font-family="sans-serif">ORIGIN</text></g><g class="relationship" transform="translate(-94.4169946358517 449.7979367467252) rotate(349.7403840426133)"><path class="outline" fill="#A5ABB6" stroke="none" d="M 25 0.5 L 34.57883738135371 0.5 L 34.57883738135371 -0.5 L 25 -0.5 Z M 93.76633738135371 0.5 L 103.34517476270742 0.5 L 103.34517476270742 3.5 L 110.34517476270742 0 L 103.34517476270742 -3.5 L 103.34517476270742 -0.5 L 93.76633738135371 -0.5 Z"/><text text-anchor="middle" pointer-events="none" font-size="8px" fill="#000000" x="64.17258738135371" y="3" font-family="sans-serif">DESTINATION</text></g><g class="relationship" transform="translate(73.72097001125455 263.99125403073134) rotate(462.19863112216916)"><path class="outline" fill="#A5ABB6" stroke="none" d="M 25 0.5 L 49.624208672660544 0.5 L 49.624208672660544 -0.5 L 25 -0.5 Z M 108.81170867266054 0.5 L 133.4359173453211 0.5 L 133.4359173453211 3.5 L 140.4359173453211 0 L 133.4359173453211 -3.5 L 133.4359173453211 -0.5 L 108.81170867266054 -0.5 Z"/><text text-anchor="middle" pointer-events="none" font-size="8px" fill="#000000" x="79.21795867266054" y="3" transform="rotate(180 79.21795867266054 0)" font-family="sans-serif">DESTINATION</text></g><g class="relationship" transform="translate(73.72097001125455 263.99125403073134) rotate(279.0906678629415)"><path class="outline" fill="#A5ABB6" stroke="none" d="M 25 0.5 L 79.46436289103023 0.5 L 79.46436289103023 -0.5 L 25 -0.5 Z M 113.90967539103023 0.5 L 168.37403828206047 0.5 L 168.37403828206047 3.5 L 175.37403828206047 0 L 168.37403828206047 -3.5 L 168.37403828206047 -0.5 L 113.90967539103023 -0.5 Z"/><text text-anchor="middle" pointer-events="none" font-size="8px" fill="#000000" x="96.68701914103023" y="3" font-family="sans-serif">ORIGIN</text></g><g class="relationship" transform="translate(128.7336321669126 287.6219082496938) rotate(483.0891916951176)"><path class="outline" fill="#A5ABB6" stroke="none" d="M 25 0.5 L 49.304374218591335 0.5 L 49.304374218591335 -0.5 L 25 -0.5 Z M 108.49187421859133 0.5 L 132.79624843718267 0.5 L 132.79624843718267 3.5 L 139.79624843718267 0 L 132.79624843718267 -3.5 L 132.79624843718267 -0.5 L 108.49187421859133 -0.5 Z"/><text text-anchor="middle" pointer-events="none" font-size="8px" fill="#000000" x="78.89812421859133" y="3" transform="rotate(180 78.89812421859133 0)" font-family="sans-serif">DESTINATION</text></g><g class="relationship" transform="translate(128.7336321669126 287.6219082496938) rotate(263.9808622598695)"><path class="outline" fill="#A5ABB6" stroke="none" d="M 25 0.5 L 90.63522059989636 0.5 L 90.63522059989636 -0.5 L 25 -0.5 Z M 125.08053309989636 0.5 L 190.7157536997927 0.5 L 190.7157536997927 3.5 L 197.7157536997927 0 L 190.7157536997927 -3.5 L 190.7157536997927 -0.5 L 125.08053309989636 -0.5 Z"/><text text-anchor="middle" pointer-events="none" font-size="8px" fill="#000000" x="107.85787684989636" y="3" transform="rotate(180 107.85787684989636 0)" font-family="sans-serif">ORIGIN</text></g><g class="relationship" transform="translate(20.237577686752065 -150.44661737038808) rotate(276.1559519356446)"><path class="outline" fill="#A5ABB6" stroke="none" d="M 25 0.5 L 57.15089379951041 0.5 L 57.15089379951041 -0.5 L 25 -0.5 Z M 91.59620629951041 0.5 L 123.74710009902083 0.5 L 123.74710009902083 3.5 L 130.74710009902083 0 L 123.74710009902083 -3.5 L 123.74710009902083 -0.5 L 91.59620629951041 -0.5 Z"/><text text-anchor="middle" pointer-events="none" font-size="8px" fill="#000000" x="74.37355004951041" y="3" font-family="sans-serif">ORIGIN</text></g><g class="relationship" transform="translate(20.237577686752065 -150.44661737038808) rotate(428.5392720390463)"><path class="outline" fill="#A5ABB6" stroke="none" d="M 25 0.5 L 83.26379658912941 0.5 L 83.26379658912941 -0.5 L 25 -0.5 Z M 142.4512965891294 0.5 L 200.71509317825883 0.5 L 200.71509317825883 3.5 L 207.71509317825883 0 L 200.71509317825883 -3.5 L 200.71509317825883 -0.5 L 142.4512965891294 -0.5 Z"/><text text-anchor="middle" pointer-events="none" font-size="8px" fill="#000000" x="112.85754658912941" y="3" font-family="sans-serif">DESTINATION</text></g><g class="relationship" transform="translate(236.47483253266643 -305.09103625733843) rotate(180.05874892748238)"><path class="outline" fill="#A5ABB6" stroke="none" d="M 25 0.5 L 66.67415686731722 0.5 L 66.67415686731722 -0.5 L 25 -0.5 Z M 125.86165686731722 0.5 L 167.53581373463444 0.5 L 167.53581373463444 3.5 L 174.53581373463444 0 L 167.53581373463444 -3.5 L 167.53581373463444 -0.5 L 125.86165686731722 -0.5 Z"/><text text-anchor="middle" pointer-events="none" font-size="8px" fill="#000000" x="96.26790686731722" y="3" transform="rotate(180 96.26790686731722 0)" font-family="sans-serif">DESTINATION</text></g><g class="relationship" transform="translate(236.47483253266643 -305.09103625733843) rotate(428.9015703970008)"><path class="outline" fill="#A5ABB6" stroke="none" d="M 25 0.5 L 45.594313959725454 0.5 L 45.594313959725454 -0.5 L 25 -0.5 Z M 80.03962645972545 0.5 L 100.63394041945091 0.5 L 100.63394041945091 3.5 L 107.63394041945091 0 L 100.63394041945091 -3.5 L 100.63394041945091 -0.5 L 80.03962645972545 -0.5 Z"/><text text-anchor="middle" pointer-events="none" font-size="8px" fill="#000000" x="62.816970209725454" y="3" font-family="sans-serif">ORIGIN</text></g><g class="relationship" transform="translate(155.73924667321086 -370.0765800438224) rotate(511.3966476054013)"><path class="outline" fill="#A5ABB6" stroke="none" d="M 25 0.5 L 34.563548864683625 0.5 L 34.563548864683625 -0.5 L 25 -0.5 Z M 93.75104886468363 0.5 L 103.31459772936725 0.5 L 103.31459772936725 3.5 L 110.31459772936725 0 L 103.31459772936725 -3.5 L 103.31459772936725 -0.5 L 93.75104886468363 -0.5 Z"/><text text-anchor="middle" pointer-events="none" font-size="8px" fill="#000000" x="64.15729886468363" y="3" transform="rotate(180 64.15729886468363 0)" font-family="sans-serif">DESTINATION</text></g><g class="relationship" transform="translate(155.73924667321086 -370.0765800438224) rotate(415.7542396348367)"><path class="outline" fill="#A5ABB6" stroke="none" d="M 25 0.5 L 93.43230921059738 0.5 L 93.43230921059738 -0.5 L 25 -0.5 Z M 127.87762171059738 0.5 L 196.30993092119476 0.5 L 196.30993092119476 3.5 L 203.30993092119476 0 L 196.30993092119476 -3.5 L 196.30993092119476 -0.5 L 127.87762171059738 -0.5 Z"/><text text-anchor="middle" pointer-events="none" font-size="8px" fill="#000000" x="110.65496546059738" y="3" font-family="sans-serif">ORIGIN</text></g><g class="relationship" transform="translate(139.39057484103233 -267.90749265722326) rotate(200.04880541542093)"><path class="outline" fill="#A5ABB6" stroke="none" d="M 25 0.5 L 33.80754835965073 0.5 L 33.80754835965073 -0.5 L 25 -0.5 Z M 68.25286085965072 0.5 L 77.06040921930146 0.5 L 77.06040921930146 3.5 L 84.06040921930146 0 L 77.06040921930146 -3.5 L 77.06040921930146 -0.5 L 68.25286085965072 -0.5 Z"/><text text-anchor="middle" pointer-events="none" font-size="8px" fill="#000000" x="51.03020460965073" y="3" transform="rotate(180 51.03020460965073 0)" font-family="sans-serif">ORIGIN</text></g><g class="relationship" transform="translate(139.39057484103233 -267.90749265722326) rotate(390.8652970167426)"><path class="outline" fill="#A5ABB6" stroke="none" d="M 25 0.5 L 51.26828750960405 0.5 L 51.26828750960405 -0.5 L 25 -0.5 Z M 110.45578750960405 0.5 L 136.7240750192081 0.5 L 136.7240750192081 3.5 L 143.7240750192081 0 L 136.7240750192081 -3.5 L 136.7240750192081 -0.5 L 110.45578750960405 -0.5 Z"/><text text-anchor="middle" pointer-events="none" font-size="8px" fill="#000000" x="80.86203750960405" y="3" font-family="sans-serif">DESTINATION</text></g><g class="relationship" transform="translate(177.20560033978614 -314.41424551733337) rotate(536.2804805632609)"><path class="outline" fill="#A5ABB6" stroke="none" d="M 25 0.5 L 37.18753052891326 0.5 L 37.18753052891326 -0.5 L 25 -0.5 Z M 96.37503052891326 0.5 L 108.56256105782651 0.5 L 108.56256105782651 3.5 L 115.56256105782651 0 L 108.56256105782651 -3.5 L 108.56256105782651 -0.5 L 96.37503052891326 -0.5 Z"/><text text-anchor="middle" pointer-events="none" font-size="8px" fill="#000000" x="66.78128052891326" y="3" transform="rotate(180 66.78128052891326 0)" font-family="sans-serif">DESTINATION</text></g><g class="relationship" transform="translate(177.20560033978614 -314.41424551733337) rotate(411.1932093159782)"><path class="outline" fill="#A5ABB6" stroke="none" d="M 25 0.5 L 64.65654363091245 0.5 L 64.65654363091245 -0.5 L 25 -0.5 Z M 99.10185613091245 0.5 L 138.7583997618249 0.5 L 138.7583997618249 3.5 L 145.7583997618249 0 L 138.7583997618249 -3.5 L 138.7583997618249 -0.5 L 99.10185613091245 -0.5 Z"/><text text-anchor="middle" pointer-events="none" font-size="8px" fill="#000000" x="81.87919988091245" y="3" font-family="sans-serif">ORIGIN</text></g><g class="relationship" transform="translate(214.93919545357957 -360.90496921508117) rotate(522.6505753538212)"><path class="outline" fill="#A5ABB6" stroke="none" d="M 25 0.5 L 60.14843982651041 0.5 L 60.14843982651041 -0.5 L 25 -0.5 Z M 119.33593982651041 0.5 L 154.48437965302082 0.5 L 154.48437965302082 3.5 L 161.48437965302082 0 L 154.48437965302082 -3.5 L 154.48437965302082 -0.5 L 119.33593982651041 -0.5 Z"/><text text-anchor="middle" pointer-events="none" font-size="8px" fill="#000000" x="89.74218982651041" y="3" transform="rotate(180 89.74218982651041 0)" font-family="sans-serif">DESTINATION</text></g><g class="relationship" transform="translate(214.93919545357957 -360.90496921508117) rotate(428.90140644163483)"><path class="outline" fill="#A5ABB6" stroke="none" d="M 25 0.5 L 75.5065972911786 0.5 L 75.5065972911786 -0.5 L 25 -0.5 Z M 109.9519097911786 0.5 L 160.4585070823572 0.5 L 160.4585070823572 3.5 L 167.4585070823572 0 L 160.4585070823572 -3.5 L 160.4585070823572 -0.5 L 109.9519097911786 -0.5 Z"/><text text-anchor="middle" pointer-events="none" font-size="8px" fill="#000000" x="92.7292535411786" y="3" font-family="sans-serif">ORIGIN</text></g><g class="relationship" transform="translate(-296.02177427592795 114.39604784150868) rotate(427.4729977477995)"><path class="outline" fill="#A5ABB6" stroke="none" d="M 25 0.5 L 76.25197092555113 0.5 L 76.25197092555113 -0.5 L 25 -0.5 Z M 110.69728342555113 0.5 L 161.94925435110227 0.5 L 161.94925435110227 3.5 L 168.94925435110227 0 L 161.94925435110227 -3.5 L 161.94925435110227 -0.5 L 110.69728342555113 -0.5 Z"/><text text-anchor="middle" pointer-events="none" font-size="8px" fill="#000000" x="93.47462717555113" y="3" font-family="sans-serif">ORIGIN</text></g><g class="relationship" transform="translate(-296.02177427592795 114.39604784150868) rotate(289.73275703784464)"><path class="outline" fill="#A5ABB6" stroke="none" d="M 25 0.5 L 60.36138170059918 0.5 L 60.36138170059918 -0.5 L 25 -0.5 Z M 119.54888170059918 0.5 L 154.91026340119836 0.5 L 154.91026340119836 3.5 L 161.91026340119836 0 L 154.91026340119836 -3.5 L 154.91026340119836 -0.5 L 119.54888170059918 -0.5 Z"/><text text-anchor="middle" pointer-events="none" font-size="8px" fill="#000000" x="89.95513170059918" y="3" font-family="sans-serif">DESTINATION</text></g><g class="relationship" transform="translate(-93.23318165485878 -4.620930152247368) rotate(202.16994389275408)"><path class="outline" fill="#A5ABB6" stroke="none" d="M 25 0.5 L 54.6936920279487 0.5 L 54.6936920279487 -0.5 L 25 -0.5 Z M 89.1390045279487 0.5 L 118.8326965558974 0.5 L 118.8326965558974 3.5 L 125.8326965558974 0 L 118.8326965558974 -3.5 L 118.8326965558974 -0.5 L 89.1390045279487 -0.5 Z"/><text text-anchor="middle" pointer-events="none" font-size="8px" fill="#000000" x="71.9163482779487" y="3" transform="rotate(180 71.9163482779487 0)" font-family="sans-serif">ORIGIN</text></g><g class="relationship" transform="translate(-93.23318165485878 -4.620930152247368) rotate(379.6082262686019)"><path class="outline" fill="#A5ABB6" stroke="none" d="M 25 0.5 L 72.32596322816917 0.5 L 72.32596322816917 -0.5 L 25 -0.5 Z M 131.51346322816917 0.5 L 178.83942645633834 0.5 L 178.83942645633834 3.5 L 185.83942645633834 0 L 178.83942645633834 -3.5 L 178.83942645633834 -0.5 L 131.51346322816917 -0.5 Z"/><text text-anchor="middle" pointer-events="none" font-size="8px" fill="#000000" x="101.91971322816917" y="3" font-family="sans-serif">DESTINATION</text></g><g class="relationship" transform="translate(-35.018599704059845 -18.584776251535217) rotate(192.24618319036983)"><path class="outline" fill="#A5ABB6" stroke="none" d="M 25 0.5 L 68.15822236022791 0.5 L 68.15822236022791 -0.5 L 25 -0.5 Z M 127.34572236022791 0.5 L 170.50394472045582 0.5 L 170.50394472045582 3.5 L 177.50394472045582 0 L 170.50394472045582 -3.5 L 170.50394472045582 -0.5 L 127.34572236022791 -0.5 Z"/><text text-anchor="middle" pointer-events="none" font-size="8px" fill="#000000" x="97.75197236022791" y="3" transform="rotate(180 97.75197236022791 0)" font-family="sans-serif">DESTINATION</text></g><g class="relationship" transform="translate(-35.018599704059845 -18.584776251535217) rotate(391.10754613140614)"><path class="outline" fill="#A5ABB6" stroke="none" d="M 25 0.5 L 61.266523083552485 0.5 L 61.266523083552485 -0.5 L 25 -0.5 Z M 95.71183558355249 0.5 L 131.97835866710497 0.5 L 131.97835866710497 3.5 L 138.97835866710497 0 L 131.97835866710497 -3.5 L 131.97835866710497 -0.5 L 95.71183558355249 -0.5 Z"/><text text-anchor="middle" pointer-events="none" font-size="8px" fill="#000000" x="78.48917933355249" y="3" font-family="sans-serif">ORIGIN</text></g><g class="relationship" transform="translate(-58.84189726791443 218.24156351171177) rotate(515.186448530358)"><path class="outline" fill="#A5ABB6" stroke="none" d="M 25 0.5 L 56.626518941418894 0.5 L 56.626518941418894 -0.5 L 25 -0.5 Z M 115.8140189414189 0.5 L 147.4405378828378 0.5 L 147.4405378828378 3.5 L 154.4405378828378 0 L 147.4405378828378 -3.5 L 147.4405378828378 -0.5 L 115.8140189414189 -0.5 Z"/><text text-anchor="middle" pointer-events="none" font-size="8px" fill="#000000" x="86.2202689414189" y="3" transform="rotate(180 86.2202689414189 0)" font-family="sans-serif">DESTINATION</text></g><g class="relationship" transform="translate(-58.84189726791443 218.24156351171177) rotate(317.1930763155448)"><path class="outline" fill="#A5ABB6" stroke="none" d="M 25 0.5 L 91.19850139393112 0.5 L 91.19850139393112 -0.5 L 25 -0.5 Z M 125.64381389393112 0.5 L 191.84231528786225 0.5 L 191.84231528786225 3.5 L 198.84231528786225 0 L 191.84231528786225 -3.5 L 191.84231528786225 -0.5 L 125.64381389393112 -0.5 Z"/><text text-anchor="middle" pointer-events="none" font-size="8px" fill="#000000" x="108.42115764393112" y="3" font-family="sans-serif">ORIGIN</text></g><g class="relationship" transform="translate(79.54308586280443 -142.06860203923873) rotate(255.3715680216776)"><path class="outline" fill="#A5ABB6" stroke="none" d="M 25 0.5 L 51.253984310058115 0.5 L 51.253984310058115 -0.5 L 25 -0.5 Z M 110.44148431005812 0.5 L 136.69546862011623 0.5 L 136.69546862011623 3.5 L 143.69546862011623 0 L 136.69546862011623 -3.5 L 136.69546862011623 -0.5 L 110.44148431005812 -0.5 Z"/><text text-anchor="middle" pointer-events="none" font-size="8px" fill="#000000" x="80.84773431005812" y="3" transform="rotate(180 80.84773431005812 0)" font-family="sans-serif">DESTINATION</text></g><g class="relationship" transform="translate(79.54308586280443 -142.06860203923873) rotate(442.9261725691099)"><path class="outline" fill="#A5ABB6" stroke="none" d="M 25 0.5 L 84.17711237150783 0.5 L 84.17711237150783 -0.5 L 25 -0.5 Z M 118.62242487150783 0.5 L 177.79953724301566 0.5 L 177.79953724301566 3.5 L 184.79953724301566 0 L 177.79953724301566 -3.5 L 177.79953724301566 -0.5 L 118.62242487150783 -0.5 Z"/><text text-anchor="middle" pointer-events="none" font-size="8px" fill="#000000" x="101.39976862150783" y="3" font-family="sans-serif">ORIGIN</text></g><g class="relationship" transform="translate(289.9991567850406 -38.26089951113848) rotate(510.5136054888137)"><path class="outline" fill="#A5ABB6" stroke="none" d="M 25 0.5 L 72.95188629194439 0.5 L 72.95188629194439 -0.5 L 25 -0.5 Z M 132.1393862919444 0.5 L 180.09127258388878 0.5 L 180.09127258388878 3.5 L 187.09127258388878 0 L 180.09127258388878 -3.5 L 180.09127258388878 -0.5 L 132.1393862919444 -0.5 Z"/><text text-anchor="middle" pointer-events="none" font-size="8px" fill="#000000" x="102.54563629194439" y="3" transform="rotate(180 102.54563629194439 0)" font-family="sans-serif">DESTINATION</text></g><g class="relationship" transform="translate(289.9991567850406 -38.26089951113848) rotate(267.68683457529386)"><path class="outline" fill="#A5ABB6" stroke="none" d="M 25 0.5 L 50.879451194152836 0.5 L 50.879451194152836 -0.5 L 25 -0.5 Z M 85.32476369415284 0.5 L 111.20421488830567 0.5 L 111.20421488830567 3.5 L 118.20421488830567 0 L 111.20421488830567 -3.5 L 111.20421488830567 -0.5 L 85.32476369415284 -0.5 Z"/><text text-anchor="middle" pointer-events="none" font-size="8px" fill="#000000" x="68.10210744415284" y="3" transform="rotate(180 68.10210744415284 0)" font-family="sans-serif">ORIGIN</text></g><g class="relationship" transform="translate(196.82847346736617 -113.54317635807679) rotate(476.9743905676236)"><path class="outline" fill="#A5ABB6" stroke="none" d="M 25 0.5 L 67.71150885701344 0.5 L 67.71150885701344 -0.5 L 25 -0.5 Z M 126.89900885701344 0.5 L 169.61051771402688 0.5 L 169.61051771402688 3.5 L 176.61051771402688 0 L 169.61051771402688 -3.5 L 169.61051771402688 -0.5 L 126.89900885701344 -0.5 Z"/><text text-anchor="middle" pointer-events="none" font-size="8px" fill="#000000" x="97.30525885701344" y="3" transform="rotate(180 97.30525885701344 0)" font-family="sans-serif">DESTINATION</text></g><g class="relationship" transform="translate(196.82847346736617 -113.54317635807679) rotate(322.19262298451355)"><path class="outline" fill="#A5ABB6" stroke="none" d="M 25 0.5 L 34.58262608135285 0.5 L 34.58262608135285 -0.5 L 25 -0.5 Z M 69.02793858135286 0.5 L 78.6105646627057 0.5 L 78.6105646627057 3.5 L 85.6105646627057 0 L 78.6105646627057 -3.5 L 78.6105646627057 -0.5 L 69.02793858135286 -0.5 Z"/><text text-anchor="middle" pointer-events="none" font-size="8px" fill="#000000" x="51.80528233135285" y="3" font-family="sans-serif">ORIGIN</text></g><g class="relationship" transform="translate(187.49831033878218 -54.439869805680125) rotate(484.25745637829266)"><path class="outline" fill="#A5ABB6" stroke="none" d="M 25 0.5 L 39.84724568453974 0.5 L 39.84724568453974 -0.5 L 25 -0.5 Z M 99.03474568453974 0.5 L 113.88199136907949 0.5 L 113.88199136907949 3.5 L 120.88199136907949 0 L 113.88199136907949 -3.5 L 113.88199136907949 -0.5 L 99.03474568453974 -0.5 Z"/><text text-anchor="middle" pointer-events="none" font-size="8px" fill="#000000" x="69.44099568453974" y="3" transform="rotate(180 69.44099568453974 0)" font-family="sans-serif">DESTINATION</text></g><g class="relationship" transform="translate(187.49831033878218 -54.439869805680125) rotate(307.3121438864708)"><path class="outline" fill="#A5ABB6" stroke="none" d="M 25 0.5 L 59.05941978891069 0.5 L 59.05941978891069 -0.5 L 25 -0.5 Z M 93.50473228891069 0.5 L 127.56415207782138 0.5 L 127.56415207782138 3.5 L 134.56415207782138 0 L 127.56415207782138 -3.5 L 127.56415207782138 -0.5 L 93.50473228891069 -0.5 Z"/><text text-anchor="middle" pointer-events="none" font-size="8px" fill="#000000" x="76.28207603891069" y="3" font-family="sans-serif">ORIGIN</text></g><g class="relationship" transform="translate(141.02250562298886 -92.12732711483724) rotate(462.6921649531249)"><path class="outline" fill="#A5ABB6" stroke="none" d="M 25 0.5 L 48.01893616309006 0.5 L 48.01893616309006 -0.5 L 25 -0.5 Z M 107.20643616309006 0.5 L 130.22537232618012 0.5 L 130.22537232618012 3.5 L 137.22537232618012 0 L 130.22537232618012 -3.5 L 130.22537232618012 -0.5 L 107.20643616309006 -0.5 Z"/><text text-anchor="middle" pointer-events="none" font-size="8px" fill="#000000" x="77.61268616309006" y="3" transform="rotate(180 77.61268616309006 0)" font-family="sans-serif">DESTINATION</text></g><g class="relationship" transform="translate(141.02250562298886 -92.12732711483724) rotate(328.0743458082045)"><path class="outline" fill="#A5ABB6" stroke="none" d="M 25 0.5 L 63.63626113414787 0.5 L 63.63626113414787 -0.5 L 25 -0.5 Z M 98.08157363414787 0.5 L 136.71783476829575 0.5 L 136.71783476829575 3.5 L 143.71783476829575 0 L 136.71783476829575 -3.5 L 136.71783476829575 -0.5 L 98.08157363414787 -0.5 Z"/><text text-anchor="middle" pointer-events="none" font-size="8px" fill="#000000" x="80.85891738414787" y="3" font-family="sans-serif">ORIGIN</text></g><g class="relationship" transform="translate(-71.8123453068714 -65.81302929840425) rotate(538.480094326867)"><path class="outline" fill="#A5ABB6" stroke="none" d="M 25 0.5 L 47.48573535573682 0.5 L 47.48573535573682 -0.5 L 25 -0.5 Z M 106.67323535573682 0.5 L 129.15897071147364 0.5 L 129.15897071147364 3.5 L 136.15897071147364 0 L 129.15897071147364 -3.5 L 129.15897071147364 -0.5 L 106.67323535573682 -0.5 Z"/><text text-anchor="middle" pointer-events="none" font-size="8px" fill="#000000" x="77.07948535573682" y="3" transform="rotate(180 77.07948535573682 0)" font-family="sans-serif">DESTINATION</text></g><g class="relationship" transform="translate(-71.8123453068714 -65.81302929840425) rotate(396.67344425479973)"><path class="outline" fill="#A5ABB6" stroke="none" d="M 25 0.5 L 89.73884679475732 0.5 L 89.73884679475732 -0.5 L 25 -0.5 Z M 124.18415929475732 0.5 L 188.92300608951464 0.5 L 188.92300608951464 3.5 L 195.92300608951464 0 L 188.92300608951464 -3.5 L 188.92300608951464 -0.5 L 124.18415929475732 -0.5 Z"/><text text-anchor="middle" pointer-events="none" font-size="8px" fill="#000000" x="106.96150304475732" y="3" font-family="sans-serif">ORIGIN</text></g><g class="relationship" transform="translate(234.11377150135016 -16.73377870956777) rotate(507.2301313763213)"><path class="outline" fill="#A5ABB6" stroke="none" d="M 25 0.5 L 55.82729168515026 0.5 L 55.82729168515026 -0.5 L 25 -0.5 Z M 90.27260418515026 0.5 L 121.09989587030051 0.5 L 121.09989587030051 3.5 L 128.09989587030051 0 L 121.09989587030051 -3.5 L 121.09989587030051 -0.5 L 90.27260418515026 -0.5 Z"/><text text-anchor="middle" pointer-events="none" font-size="8px" fill="#000000" x="73.04994793515026" y="3" transform="rotate(180 73.04994793515026 0)" font-family="sans-serif">ORIGIN</text></g><g class="relationship" transform="translate(234.11377150135016 -16.73377870956777) rotate(286.9292189601607)"><path class="outline" fill="#A5ABB6" stroke="none" d="M 25 0.5 L 52.94190982712769 0.5 L 52.94190982712769 -0.5 L 25 -0.5 Z M 112.12940982712769 0.5 L 140.07131965425538 0.5 L 140.07131965425538 3.5 L 147.07131965425538 0 L 140.07131965425538 -3.5 L 140.07131965425538 -0.5 L 112.12940982712769 -0.5 Z"/><text text-anchor="middle" pointer-events="none" font-size="8px" fill="#000000" x="82.53565982712769" y="3" font-family="sans-serif">DESTINATION</text></g><g class="relationship" transform="translate(243.41046314682032 -75.85342149364087) rotate(494.19050203814487)"><path class="outline" fill="#A5ABB6" stroke="none" d="M 25 0.5 L 65.9175769343869 0.5 L 65.9175769343869 -0.5 L 25 -0.5 Z M 125.1050769343869 0.5 L 166.0226538687738 0.5 L 166.0226538687738 3.5 L 173.0226538687738 0 L 166.0226538687738 -3.5 L 166.0226538687738 -0.5 L 125.1050769343869 -0.5 Z"/><text text-anchor="middle" pointer-events="none" font-size="8px" fill="#000000" x="95.5113269343869" y="3" transform="rotate(180 95.5113269343869 0)" font-family="sans-serif">DESTINATION</text></g><g class="relationship" transform="translate(243.41046314682032 -75.85342149364087) rotate(291.1480321670568)"><path class="outline" fill="#A5ABB6" stroke="none" d="M 25 0.5 L 35.83384540491492 0.5 L 35.83384540491492 -0.5 L 25 -0.5 Z M 70.27915790491491 0.5 L 81.11300330982984 0.5 L 81.11300330982984 3.5 L 88.11300330982984 0 L 81.11300330982984 -3.5 L 81.11300330982984 -0.5 L 70.27915790491491 -0.5 Z"/><text text-anchor="middle" pointer-events="none" font-size="8px" fill="#000000" x="53.05650165491492" y="3" font-family="sans-serif">ORIGIN</text></g><g class="relationship" transform="translate(-289.2449257103924 188.0011446641636) rotate(417.38863726841237)"><path class="outline" fill="#A5ABB6" stroke="none" d="M 25 0.5 L 41.927198689802225 0.5 L 41.927198689802225 -0.5 L 25 -0.5 Z M 76.37251118980222 0.5 L 93.29970987960445 0.5 L 93.29970987960445 3.5 L 100.29970987960445 0 L 93.29970987960445 -3.5 L 93.29970987960445 -0.5 L 76.37251118980222 -0.5 Z"/><text text-anchor="middle" pointer-events="none" font-size="8px" fill="#000000" x="59.149854939802225" y="3" font-family="sans-serif">ORIGIN</text></g><g class="relationship" transform="translate(-289.2449257103924 188.0011446641636) rotate(290.9556628148077)"><path class="outline" fill="#A5ABB6" stroke="none" d="M 25 0.5 L 37.40716534562161 0.5 L 37.40716534562161 -0.5 L 25 -0.5 Z M 96.5946653456216 0.5 L 109.00183069124321 0.5 L 109.00183069124321 3.5 L 116.00183069124321 0 L 109.00183069124321 -3.5 L 109.00183069124321 -0.5 L 96.5946653456216 -0.5 Z"/><text text-anchor="middle" pointer-events="none" font-size="8px" fill="#000000" x="67.0009153456216" y="3" font-family="sans-serif">DESTINATION</text></g><g class="relationship" transform="translate(-92.38076301690657 92.50963430394154) rotate(193.87971206299915)"><path class="outline" fill="#A5ABB6" stroke="none" d="M 25 0.5 L 54.6972455863026 0.5 L 54.6972455863026 -0.5 L 25 -0.5 Z M 89.1425580863026 0.5 L 118.8398036726052 0.5 L 118.8398036726052 3.5 L 125.8398036726052 0 L 118.8398036726052 -3.5 L 118.8398036726052 -0.5 L 89.1425580863026 -0.5 Z"/><text text-anchor="middle" pointer-events="none" font-size="8px" fill="#000000" x="71.9199018363026" y="3" transform="rotate(180 71.9199018363026 0)" font-family="sans-serif">ORIGIN</text></g><g class="relationship" transform="translate(-92.38076301690657 92.50963430394154) rotate(352.40319485398686)"><path class="outline" fill="#A5ABB6" stroke="none" d="M 25 0.5 L 66.66195333016024 0.5 L 66.66195333016024 -0.5 L 25 -0.5 Z M 125.84945333016024 0.5 L 167.5114066603205 0.5 L 167.5114066603205 3.5 L 174.5114066603205 0 L 167.5114066603205 -3.5 L 167.5114066603205 -0.5 L 125.84945333016024 -0.5 Z"/><text text-anchor="middle" pointer-events="none" font-size="8px" fill="#000000" x="96.25570333016024" y="3" font-family="sans-serif">DESTINATION</text></g><g class="relationship" transform="translate(-336.00402892067996 225.51741178343917) rotate(390.76305129190604)"><path class="outline" fill="#A5ABB6" stroke="none" d="M 25 0.5 L 33.407587946505274 0.5 L 33.407587946505274 -0.5 L 25 -0.5 Z M 92.59508794650527 0.5 L 101.00267589301055 0.5 L 101.00267589301055 3.5 L 108.00267589301055 0 L 101.00267589301055 -3.5 L 101.00267589301055 -0.5 L 92.59508794650527 -0.5 Z"/><text text-anchor="middle" pointer-events="none" font-size="8px" fill="#000000" x="63.001337946505274" y="3" font-family="sans-serif">DESTINATION</text></g><g class="relationship" transform="translate(-336.00402892067996 225.51741178343917) rotate(299.8740641907133)"><path class="outline" fill="#A5ABB6" stroke="none" d="M 25 0.5 L 76.83675225282093 0.5 L 76.83675225282093 -0.5 L 25 -0.5 Z M 111.28206475282093 0.5 L 163.11881700564186 0.5 L 163.11881700564186 3.5 L 170.11881700564186 0 L 163.11881700564186 -3.5 L 163.11881700564186 -0.5 L 111.28206475282093 -0.5 Z"/><text text-anchor="middle" pointer-events="none" font-size="8px" fill="#000000" x="94.05940850282093" y="3" font-family="sans-serif">ORIGIN</text></g><g class="relationship" transform="translate(-57.79080836453445 43.74254609153553) rotate(536.0237953380575)"><path class="outline" fill="#A5ABB6" stroke="none" d="M 25 0.5 L 57.63737566039234 0.5 L 57.63737566039234 -0.5 L 25 -0.5 Z M 116.82487566039234 0.5 L 149.46225132078467 0.5 L 149.46225132078467 3.5 L 156.46225132078467 0 L 149.46225132078467 -3.5 L 149.46225132078467 -0.5 L 116.82487566039234 -0.5 Z"/><text text-anchor="middle" pointer-events="none" font-size="8px" fill="#000000" x="87.23112566039234" y="3" transform="rotate(180 87.23112566039234 0)" font-family="sans-serif">DESTINATION</text></g><g class="relationship" transform="translate(-57.79080836453445 43.74254609153553) rotate(367.8137530550837)"><path class="outline" fill="#A5ABB6" stroke="none" d="M 25 0.5 L 61.62710345166387 0.5 L 61.62710345166387 -0.5 L 25 -0.5 Z M 96.07241595166387 0.5 L 132.69951940332774 0.5 L 132.69951940332774 3.5 L 139.69951940332774 0 L 132.69951940332774 -3.5 L 132.69951940332774 -0.5 L 96.07241595166387 -0.5 Z"/><text text-anchor="middle" pointer-events="none" font-size="8px" fill="#000000" x="78.84975970166387" y="3" font-family="sans-serif">ORIGIN</text></g><g class="relationship" transform="translate(-345.1760734634946 166.3508792950105) rotate(405.85392753588997)"><path class="outline" fill="#A5ABB6" stroke="none" d="M 25 0.5 L 67.90740202978863 0.5 L 67.90740202978863 -0.5 L 25 -0.5 Z M 102.35271452978863 0.5 L 145.26011655957726 0.5 L 145.26011655957726 3.5 L 152.26011655957726 0 L 145.26011655957726 -3.5 L 145.26011655957726 -0.5 L 102.35271452978863 -0.5 Z"/><text text-anchor="middle" pointer-events="none" font-size="8px" fill="#000000" x="85.13005827978863" y="3" font-family="sans-serif">ORIGIN</text></g><g class="relationship" transform="translate(-345.1760734634946 166.3508792950105) rotate(314.02950848107105)"><path class="outline" fill="#A5ABB6" stroke="none" d="M 25 0.5 L 43.42093004632319 0.5 L 43.42093004632319 -0.5 L 25 -0.5 Z M 102.60843004632319 0.5 L 121.02936009264639 0.5 L 121.02936009264639 3.5 L 128.02936009264639 0 L 121.02936009264639 -3.5 L 121.02936009264639 -0.5 L 102.60843004632319 -0.5 Z"/><text text-anchor="middle" pointer-events="none" font-size="8px" fill="#000000" x="73.01468004632319" y="3" font-family="sans-serif">DESTINATION</text></g><g class="relationship" transform="translate(-279.4038830398699 396.6376366750458) rotate(299.23056316231316)"><path class="outline" fill="#A5ABB6" stroke="none" d="M 25 0.5 L 38.3442417904088 0.5 L 38.3442417904088 -0.5 L 25 -0.5 Z M 72.7895542904088 0.5 L 86.1337960808176 0.5 L 86.1337960808176 3.5 L 93.1337960808176 0 L 86.1337960808176 -3.5 L 86.1337960808176 -0.5 L 72.7895542904088 -0.5 Z"/><text text-anchor="middle" pointer-events="none" font-size="8px" fill="#000000" x="55.5668980404088" y="3" font-family="sans-serif">ORIGIN</text></g><g class="relationship" transform="translate(-279.4038830398699 396.6376366750458) rotate(329.0100271298834)"><path class="outline" fill="#A5ABB6" stroke="none" d="M 25 0.5 L 51.35918511112342 0.5 L 51.35918511112342 -0.5 L 25 -0.5 Z M 110.54668511112342 0.5 L 136.90587022224685 0.5 L 136.90587022224685 3.5 L 143.90587022224685 0 L 136.90587022224685 -3.5 L 136.90587022224685 -0.5 L 110.54668511112342 -0.5 Z"/><text text-anchor="middle" pointer-events="none" font-size="8px" fill="#000000" x="80.95293511112342" y="3" font-family="sans-serif">DESTINATION</text></g><g class="relationship" transform="translate(21.670230616013235 218.85226954143548) rotate(509.8379146510672)"><path class="outline" fill="#A5ABB6" stroke="none" d="M 25 0.5 L 57.28153966486924 0.5 L 57.28153966486924 -0.5 L 25 -0.5 Z M 116.46903966486924 0.5 L 148.75057932973849 0.5 L 148.75057932973849 3.5 L 155.75057932973849 0 L 148.75057932973849 -3.5 L 148.75057932973849 -0.5 L 116.46903966486924 -0.5 Z"/><text text-anchor="middle" pointer-events="none" font-size="8px" fill="#000000" x="86.87528966486924" y="3" transform="rotate(180 86.87528966486924 0)" font-family="sans-serif">DESTINATION</text></g><g class="relationship" transform="translate(21.670230616013235 218.85226954143548) rotate(298.7284174911512)"><path class="outline" fill="#A5ABB6" stroke="none" d="M 25 0.5 L 66.35505784550365 0.5 L 66.35505784550365 -0.5 L 25 -0.5 Z M 100.80037034550365 0.5 L 142.1554281910073 0.5 L 142.1554281910073 3.5 L 149.1554281910073 0 L 142.1554281910073 -3.5 L 142.1554281910073 -0.5 L 100.80037034550365 -0.5 Z"/><text text-anchor="middle" pointer-events="none" font-size="8px" fill="#000000" x="83.57771409550365" y="3" font-family="sans-serif">ORIGIN</text></g><g class="relationship" transform="translate(-13.23512316391157 170.13859993362715) rotate(491.01873734568255)"><path class="outline" fill="#A5ABB6" stroke="none" d="M 25 0.5 L 59.37301467418733 0.5 L 59.37301467418733 -0.5 L 25 -0.5 Z M 118.56051467418733 0.5 L 152.93352934837466 0.5 L 152.93352934837466 3.5 L 159.93352934837466 0 L 152.93352934837466 -3.5 L 152.93352934837466 -0.5 L 118.56051467418733 -0.5 Z"/><text text-anchor="middle" pointer-events="none" font-size="8px" fill="#000000" x="88.96676467418733" y="3" transform="rotate(180 88.96676467418733 0)" font-family="sans-serif">DESTINATION</text></g><g class="relationship" transform="translate(-13.23512316391157 170.13859993362715) rotate(318.7548192654425)"><path class="outline" fill="#A5ABB6" stroke="none" d="M 25 0.5 L 58.15444514753372 0.5 L 58.15444514753372 -0.5 L 25 -0.5 Z M 92.59975764753372 0.5 L 125.75420279506744 0.5 L 125.75420279506744 3.5 L 132.75420279506744 0 L 125.75420279506744 -3.5 L 125.75420279506744 -0.5 L 92.59975764753372 -0.5 Z"/><text text-anchor="middle" pointer-events="none" font-size="8px" fill="#000000" x="75.37710139753372" y="3" font-family="sans-serif">ORIGIN</text></g><g class="relationship" transform="translate(20.74868423052163 -90.50686213495511) rotate(510.5037439210687)"><path class="outline" fill="#A5ABB6" stroke="none" d="M 25 0.5 L 116.01503304305896 0.5 L 116.01503304305896 -0.5 L 25 -0.5 Z M 175.20253304305896 0.5 L 266.2175660861179 0.5 L 266.2175660861179 3.5 L 273.2175660861179 0 L 266.2175660861179 -3.5 L 266.2175660861179 -0.5 L 175.20253304305896 -0.5 Z"/><text text-anchor="middle" pointer-events="none" font-size="8px" fill="#000000" x="145.60878304305896" y="3" transform="rotate(180 145.60878304305896 0)" font-family="sans-serif">DESTINATION</text></g><g class="relationship" transform="translate(20.74868423052163 -90.50686213495511) rotate(340.97640605921333)"><path class="outline" fill="#A5ABB6" stroke="none" d="M 25 0.5 L 118.62306587137331 0.5 L 118.62306587137331 -0.5 L 25 -0.5 Z M 153.0683783713733 0.5 L 246.69144424274663 0.5 L 246.69144424274663 3.5 L 253.69144424274663 0 L 246.69144424274663 -3.5 L 246.69144424274663 -0.5 L 153.0683783713733 -0.5 Z"/><text text-anchor="middle" pointer-events="none" font-size="8px" fill="#000000" x="135.8457221213733" y="3" font-family="sans-serif">ORIGIN</text></g></g><g class="layer nodes"><g class="node" transform="translate(709.0862995760175,309.185110690526)"><circle class="outline" cx="0" cy="0" r="25" fill="#ECB5C9" stroke="#da7298" stroke-width="2px"/><text text-anchor="middle" pointer-events="none" font-family="sans-serif" dy="1.5625" font-size="25" fill="#2A2C34"/><text text-anchor="middle" pointer-events="none" x="0" y="5" font-size="10px" fill="#2A2C34" font-family="sans-serif"> DAY</text></g><g class="node" transform="translate(-221.71616982451502,293.54679556659835)"><circle class="outline" cx="0" cy="0" r="25" fill="#ECB5C9" stroke="#da7298" stroke-width="2px"/><text text-anchor="middle" pointer-events="none" font-family="sans-serif" dy="1.5625" font-size="25" fill="#2A2C34"/><text text-anchor="middle" pointer-events="none" x="0" y="5" font-size="10px" fill="#2A2C34" font-family="sans-serif"> LAX</text></g><g class="node" transform="translate(-92.27380728905588,168.55186670544998)"><circle class="outline" cx="0" cy="0" r="25" fill="#4C8EDA" stroke="#2870c2" stroke-width="2px"/><text text-anchor="middle" pointer-events="none" font-family="sans-serif" dy="1.5625" font-size="25" fill="#FFFFFF"/><text text-anchor="middle" pointer-events="none" x="0" y="5" font-size="10px" fill="#FFFFFF" font-family="sans-serif"> 11/30/20…</text></g><g class="node" transform="translate(105.37951475391125,66.13400305862812)"><circle class="outline" cx="0" cy="0" r="25" fill="#ECB5C9" stroke="#da7298" stroke-width="2px"/><text text-anchor="middle" pointer-events="none" font-family="sans-serif" dy="1.5625" font-size="25" fill="#2A2C34"/><text text-anchor="middle" pointer-events="none" x="0" y="5" font-size="10px" fill="#2A2C34" font-family="sans-serif"> ORD</text></g><g class="node" transform="translate(301.6031024057719,115.9648785105242)"><circle class="outline" cx="0" cy="0" r="25" fill="#4C8EDA" stroke="#2870c2" stroke-width="2px"/><text text-anchor="middle" pointer-events="none" font-family="sans-serif" dy="1.5625" font-size="25" fill="#FFFFFF"/><text text-anchor="middle" pointer-events="none" x="0" y="5" font-size="10px" fill="#FFFFFF" font-family="sans-serif"> 11/29/20…</text></g><g class="node" transform="translate(517.1016368873657,161.1086864497282)"><circle class="outline" cx="0" cy="0" r="25" fill="#ECB5C9" stroke="#da7298" stroke-width="2px"/><text text-anchor="middle" pointer-events="none" font-family="sans-serif" dy="1.5625" font-size="25" fill="#2A2C34"/><text text-anchor="middle" pointer-events="none" x="0" y="5" font-size="10px" fill="#2A2C34" font-family="sans-serif"> MSP</text></g><g class="node" transform="translate(692.4355434099353,183.5184435566594)"><circle class="outline" cx="0" cy="0" r="25" fill="#4C8EDA" stroke="#2870c2" stroke-width="2px"/><text text-anchor="middle" pointer-events="none" font-family="sans-serif" dy="1.5625" font-size="25" fill="#FFFFFF"/><text text-anchor="middle" pointer-events="none" x="0" y="5" font-size="10px" fill="#FFFFFF" font-family="sans-serif"> 11/25/20…</text></g><g class="node" transform="translate(-1.484918032842693,358.0399217275549)"><circle class="outline" cx="0" cy="0" r="25" fill="#4C8EDA" stroke="#2870c2" stroke-width="2px"/><text text-anchor="middle" pointer-events="none" font-family="sans-serif" dy="1.5625" font-size="25" fill="#FFFFFF"/><text text-anchor="middle" pointer-events="none" x="0" y="5" font-size="10px" fill="#FFFFFF" font-family="sans-serif"> 11/29/20…</text></g><g class="node" transform="translate(243.20542234579528,308.2057885332191)"><circle class="outline" cx="0" cy="0" r="25" fill="#ECB5C9" stroke="#da7298" stroke-width="2px"/><text text-anchor="middle" pointer-events="none" font-family="sans-serif" dy="1.5625" font-size="25" fill="#2A2C34"/><text text-anchor="middle" pointer-events="none" x="0" y="5" font-size="10px" fill="#2A2C34" font-family="sans-serif"> LAS</text></g><g class="node" transform="translate(165.19218591035636,214.47317942980874)"><circle class="outline" cx="0" cy="0" r="25" fill="#4C8EDA" stroke="#2870c2" stroke-width="2px"/><text text-anchor="middle" pointer-events="none" font-family="sans-serif" dy="1.5625" font-size="25" fill="#FFFFFF"/><text text-anchor="middle" pointer-events="none" x="0" y="5" font-size="10px" fill="#FFFFFF" font-family="sans-serif"> 11/29/20…</text></g><g class="node" transform="translate(220.73961931968452,191.96410534781108)"><circle class="outline" cx="0" cy="0" r="25" fill="#4C8EDA" stroke="#2870c2" stroke-width="2px"/><text text-anchor="middle" pointer-events="none" font-family="sans-serif" dy="1.5625" font-size="25" fill="#FFFFFF"/><text text-anchor="middle" pointer-events="none" x="0" y="5" font-size="10px" fill="#FFFFFF" font-family="sans-serif"> 11/29/20…</text></g><g class="node" transform="translate(326.6843787509799,39.671038367134)"><circle class="outline" cx="0" cy="0" r="25" fill="#4C8EDA" stroke="#2870c2" stroke-width="2px"/><text text-anchor="middle" pointer-events="none" font-family="sans-serif" dy="1.5625" font-size="25" fill="#FFFFFF"/><text text-anchor="middle" pointer-events="none" x="0" y="5" font-size="10px" fill="#FFFFFF" font-family="sans-serif"> 11/29/20…</text></g><g class="node" transform="translate(284.21923613844615,-181.34842405152284)"><circle class="outline" cx="0" cy="0" r="25" fill="#ECB5C9" stroke="#da7298" stroke-width="2px"/><text text-anchor="middle" pointer-events="none" font-family="sans-serif" dy="1.5625" font-size="25" fill="#2A2C34"/><text text-anchor="middle" pointer-events="none" x="0" y="5" font-size="10px" fill="#2A2C34" font-family="sans-serif"> DEN</text></g><g class="node" transform="translate(453.6499354861252,-41.78295493305203)"><circle class="outline" cx="0" cy="0" r="25" fill="#4C8EDA" stroke="#2870c2" stroke-width="2px"/><text text-anchor="middle" pointer-events="none" font-family="sans-serif" dy="1.5625" font-size="25" fill="#FFFFFF"/><text text-anchor="middle" pointer-events="none" x="0" y="5" font-size="10px" fill="#FFFFFF" font-family="sans-serif"> 11/29/20…</text></g><g class="node" transform="translate(579.6202530334511,320.01518903916343)"><circle class="outline" cx="0" cy="0" r="25" fill="#4C8EDA" stroke="#2870c2" stroke-width="2px"/><text text-anchor="middle" pointer-events="none" font-family="sans-serif" dy="1.5625" font-size="25" fill="#FFFFFF"/><text text-anchor="middle" pointer-events="none" x="0" y="5" font-size="10px" fill="#FFFFFF" font-family="sans-serif"> 11/23/20…</text></g><g class="node" transform="translate(648.0959780280525,232.5416139593549)"><circle class="outline" cx="0" cy="0" r="25" fill="#4C8EDA" stroke="#2870c2" stroke-width="2px"/><text text-anchor="middle" pointer-events="none" font-family="sans-serif" dy="1.5625" font-size="25" fill="#FFFFFF"/><text text-anchor="middle" pointer-events="none" x="0" y="5" font-size="10px" fill="#FFFFFF" font-family="sans-serif"> 11/11/20…</text></g><g class="node" transform="translate(633.2772614407841,174.5072034984075)"><circle class="outline" cx="0" cy="0" r="25" fill="#4C8EDA" stroke="#2870c2" stroke-width="2px"/><text text-anchor="middle" pointer-events="none" font-family="sans-serif" dy="1.5625" font-size="25" fill="#FFFFFF"/><text text-anchor="middle" pointer-events="none" x="0" y="5" font-size="10px" fill="#FFFFFF" font-family="sans-serif"> 11/20/20…</text></g><g class="node" transform="translate(327.84433934793094,169.72816715203294)"><circle class="outline" cx="0" cy="0" r="25" fill="#4C8EDA" stroke="#2870c2" stroke-width="2px"/><text text-anchor="middle" pointer-events="none" font-family="sans-serif" dy="1.5625" font-size="25" fill="#FFFFFF"/><text text-anchor="middle" pointer-events="none" x="0" y="5" font-size="10px" fill="#FFFFFF" font-family="sans-serif"> 11/29/20…</text></g><g class="node" transform="translate(361.186154439171,119.64949243597906)"><circle class="outline" cx="0" cy="0" r="25" fill="#4C8EDA" stroke="#2870c2" stroke-width="2px"/><text text-anchor="middle" pointer-events="none" font-family="sans-serif" dy="1.5625" font-size="25" fill="#FFFFFF"/><text text-anchor="middle" pointer-events="none" x="0" y="5" font-size="10px" fill="#FFFFFF" font-family="sans-serif"> 11/30/20…</text></g><g class="node" transform="translate(-150.53594335386194,420.43409798386347)"><circle class="outline" cx="0" cy="0" r="25" fill="#4C8EDA" stroke="#2870c2" stroke-width="2px"/><text text-anchor="middle" pointer-events="none" font-family="sans-serif" dy="1.5625" font-size="25" fill="#FFFFFF"/><text text-anchor="middle" pointer-events="none" x="0" y="5" font-size="10px" fill="#FFFFFF" font-family="sans-serif"> 11/3/2015</text></g><g class="node" transform="translate(38.76412169799272,425.69178434492517)"><circle class="outline" cx="0" cy="0" r="25" fill="#ECB5C9" stroke="#da7298" stroke-width="2px"/><text text-anchor="middle" pointer-events="none" font-family="sans-serif" dy="1.5625" font-size="25" fill="#2A2C34"/><text text-anchor="middle" pointer-events="none" x="0" y="5" font-size="10px" fill="#2A2C34" font-family="sans-serif"> SMF</text></g><g class="node" transform="translate(181.00338651146487,116.1964577745481)"><circle class="outline" cx="0" cy="0" r="25" fill="#4C8EDA" stroke="#2870c2" stroke-width="2px"/><text text-anchor="middle" pointer-events="none" font-family="sans-serif" dy="1.5625" font-size="25" fill="#FFFFFF"/><text text-anchor="middle" pointer-events="none" x="0" y="5" font-size="10px" fill="#FFFFFF" font-family="sans-serif"> 11/30/20…</text></g><g class="node" transform="translate(-145.9937868322534,480.11155041271377)"><circle class="outline" cx="0" cy="0" r="25" fill="#4C8EDA" stroke="#2870c2" stroke-width="2px"/><text text-anchor="middle" pointer-events="none" font-family="sans-serif" dy="1.5625" font-size="25" fill="#FFFFFF"/><text text-anchor="middle" pointer-events="none" x="0" y="5" font-size="10px" fill="#FFFFFF" font-family="sans-serif"> 11/1/2015</text></g><g class="node" transform="translate(-150.00477077892918,-29.72511462179532)"><circle class="outline" cx="0" cy="0" r="25" fill="#4C8EDA" stroke="#2870c2" stroke-width="2px"/><text text-anchor="middle" pointer-events="none" font-family="sans-serif" dy="1.5625" font-size="25" fill="#FFFFFF"/><text text-anchor="middle" pointer-events="none" x="0" y="5" font-size="10px" fill="#FFFFFF" font-family="sans-serif"> 11/29/20…</text></g><g class="node" transform="translate(36.939123690775105,-305.295632705746)"><circle class="outline" cx="0" cy="0" r="25" fill="#ECB5C9" stroke="#da7298" stroke-width="2px"/><text text-anchor="middle" pointer-events="none" font-family="sans-serif" dy="1.5625" font-size="25" fill="#2A2C34"/><text text-anchor="middle" pointer-events="none" x="0" y="5" font-size="10px" fill="#2A2C34" font-family="sans-serif"> SFO</text></g><g class="node" transform="translate(198.54642945073795,-258.53586891071694)"><circle class="outline" cx="0" cy="0" r="25" fill="#4C8EDA" stroke="#2870c2" stroke-width="2px"/><text text-anchor="middle" pointer-events="none" font-family="sans-serif" dy="1.5625" font-size="25" fill="#FFFFFF"/><text text-anchor="middle" pointer-events="none" x="0" y="5" font-size="10px" fill="#FFFFFF" font-family="sans-serif"> 11/30/20…</text></g><g class="node" transform="translate(-98.88312092896227,390.0553879993821)"><circle class="outline" cx="0" cy="0" r="25" fill="#4C8EDA" stroke="#2870c2" stroke-width="2px"/><text text-anchor="middle" pointer-events="none" font-family="sans-serif" dy="1.5625" font-size="25" fill="#FFFFFF"/><text text-anchor="middle" pointer-events="none" x="0" y="5" font-size="10px" fill="#FFFFFF" font-family="sans-serif"> 11/2/2015</text></g><g class="node" transform="translate(596.1088195804311,262.42182634187554)"><circle class="outline" cx="0" cy="0" r="25" fill="#4C8EDA" stroke="#2870c2" stroke-width="2px"/><text text-anchor="middle" pointer-events="none" font-family="sans-serif" dy="1.5625" font-size="25" fill="#FFFFFF"/><text text-anchor="middle" pointer-events="none" x="0" y="5" font-size="10px" fill="#FFFFFF" font-family="sans-serif"> 11/16/20…</text></g><g class="node" transform="translate(-94.4169946358517,449.7979367467252)"><circle class="outline" cx="0" cy="0" r="25" fill="#4C8EDA" stroke="#2870c2" stroke-width="2px"/><text text-anchor="middle" pointer-events="none" font-family="sans-serif" dy="1.5625" font-size="25" fill="#FFFFFF"/><text text-anchor="middle" pointer-events="none" x="0" y="5" font-size="10px" fill="#FFFFFF" font-family="sans-serif"> 11/4/2015</text></g><g class="node" transform="translate(73.72097001125455,263.99125403073134)"><circle class="outline" cx="0" cy="0" r="25" fill="#4C8EDA" stroke="#2870c2" stroke-width="2px"/><text text-anchor="middle" pointer-events="none" font-family="sans-serif" dy="1.5625" font-size="25" fill="#FFFFFF"/><text text-anchor="middle" pointer-events="none" x="0" y="5" font-size="10px" fill="#FFFFFF" font-family="sans-serif"> 11/30/20…</text></g><g class="node" transform="translate(128.7336321669126,287.6219082496938)"><circle class="outline" cx="0" cy="0" r="25" fill="#4C8EDA" stroke="#2870c2" stroke-width="2px"/><text text-anchor="middle" pointer-events="none" font-family="sans-serif" dy="1.5625" font-size="25" fill="#FFFFFF"/><text text-anchor="middle" pointer-events="none" x="0" y="5" font-size="10px" fill="#FFFFFF" font-family="sans-serif"> 11/29/20…</text></g><g class="node" transform="translate(20.237577686752065,-150.44661737038808)"><circle class="outline" cx="0" cy="0" r="25" fill="#4C8EDA" stroke="#2870c2" stroke-width="2px"/><text text-anchor="middle" pointer-events="none" font-family="sans-serif" dy="1.5625" font-size="25" fill="#FFFFFF"/><text text-anchor="middle" pointer-events="none" x="0" y="5" font-size="10px" fill="#FFFFFF" font-family="sans-serif"> 11/29/20…</text></g><g class="node" transform="translate(236.47483253266643,-305.09103625733843)"><circle class="outline" cx="0" cy="0" r="25" fill="#4C8EDA" stroke="#2870c2" stroke-width="2px"/><text text-anchor="middle" pointer-events="none" font-family="sans-serif" dy="1.5625" font-size="25" fill="#FFFFFF"/><text text-anchor="middle" pointer-events="none" x="0" y="5" font-size="10px" fill="#FFFFFF" font-family="sans-serif"> 11/29/20…</text></g><g class="node" transform="translate(155.73924667321086,-370.0765800438224)"><circle class="outline" cx="0" cy="0" r="25" fill="#4C8EDA" stroke="#2870c2" stroke-width="2px"/><text text-anchor="middle" pointer-events="none" font-family="sans-serif" dy="1.5625" font-size="25" fill="#FFFFFF"/><text text-anchor="middle" pointer-events="none" x="0" y="5" font-size="10px" fill="#FFFFFF" font-family="sans-serif"> 11/29/20…</text></g><g class="node" transform="translate(139.39057484103233,-267.90749265722326)"><circle class="outline" cx="0" cy="0" r="25" fill="#4C8EDA" stroke="#2870c2" stroke-width="2px"/><text text-anchor="middle" pointer-events="none" font-family="sans-serif" dy="1.5625" font-size="25" fill="#FFFFFF"/><text text-anchor="middle" pointer-events="none" x="0" y="5" font-size="10px" fill="#FFFFFF" font-family="sans-serif"> 11/30/20…</text></g><g class="node" transform="translate(177.20560033978614,-314.41424551733337)"><circle class="outline" cx="0" cy="0" r="25" fill="#4C8EDA" stroke="#2870c2" stroke-width="2px"/><text text-anchor="middle" pointer-events="none" font-family="sans-serif" dy="1.5625" font-size="25" fill="#FFFFFF"/><text text-anchor="middle" pointer-events="none" x="0" y="5" font-size="10px" fill="#FFFFFF" font-family="sans-serif"> 11/29/20…</text></g><g class="node" transform="translate(214.93919545357957,-360.90496921508117)"><circle class="outline" cx="0" cy="0" r="25" fill="#4C8EDA" stroke="#2870c2" stroke-width="2px"/><text text-anchor="middle" pointer-events="none" font-family="sans-serif" dy="1.5625" font-size="25" fill="#FFFFFF"/><text text-anchor="middle" pointer-events="none" x="0" y="5" font-size="10px" fill="#FFFFFF" font-family="sans-serif"> 11/30/20…</text></g><g class="node" transform="translate(-296.02177427592795,114.39604784150868)"><circle class="outline" cx="0" cy="0" r="25" fill="#4C8EDA" stroke="#2870c2" stroke-width="2px"/><text text-anchor="middle" pointer-events="none" font-family="sans-serif" dy="1.5625" font-size="25" fill="#FFFFFF"/><text text-anchor="middle" pointer-events="none" x="0" y="5" font-size="10px" fill="#FFFFFF" font-family="sans-serif"> 11/30/20…</text></g><g class="node" transform="translate(-232.91461550006758,-61.53840891993332)"><circle class="outline" cx="0" cy="0" r="25" fill="#ECB5C9" stroke="#da7298" stroke-width="2px"/><text text-anchor="middle" pointer-events="none" font-family="sans-serif" dy="1.5625" font-size="25" fill="#2A2C34"/><text text-anchor="middle" pointer-events="none" x="0" y="5" font-size="10px" fill="#2A2C34" font-family="sans-serif"> IAH</text></g><g class="node" transform="translate(-93.23318165485878,-4.620930152247368)"><circle class="outline" cx="0" cy="0" r="25" fill="#4C8EDA" stroke="#2870c2" stroke-width="2px"/><text text-anchor="middle" pointer-events="none" font-family="sans-serif" dy="1.5625" font-size="25" fill="#FFFFFF"/><text text-anchor="middle" pointer-events="none" x="0" y="5" font-size="10px" fill="#FFFFFF" font-family="sans-serif"> 11/29/20…</text></g><g class="node" transform="translate(-35.018599704059845,-18.584776251535217)"><circle class="outline" cx="0" cy="0" r="25" fill="#4C8EDA" stroke="#2870c2" stroke-width="2px"/><text text-anchor="middle" pointer-events="none" font-family="sans-serif" dy="1.5625" font-size="25" fill="#FFFFFF"/><text text-anchor="middle" pointer-events="none" x="0" y="5" font-size="10px" fill="#FFFFFF" font-family="sans-serif"> 11/29/20…</text></g><g class="node" transform="translate(-58.84189726791443,218.24156351171177)"><circle class="outline" cx="0" cy="0" r="25" fill="#4C8EDA" stroke="#2870c2" stroke-width="2px"/><text text-anchor="middle" pointer-events="none" font-family="sans-serif" dy="1.5625" font-size="25" fill="#FFFFFF"/><text text-anchor="middle" pointer-events="none" x="0" y="5" font-size="10px" fill="#FFFFFF" font-family="sans-serif"> 11/29/20…</text></g><g class="node" transform="translate(79.54308586280443,-142.06860203923873)"><circle class="outline" cx="0" cy="0" r="25" fill="#4C8EDA" stroke="#2870c2" stroke-width="2px"/><text text-anchor="middle" pointer-events="none" font-family="sans-serif" dy="1.5625" font-size="25" fill="#FFFFFF"/><text text-anchor="middle" pointer-events="none" x="0" y="5" font-size="10px" fill="#FFFFFF" font-family="sans-serif"> 11/30/20…</text></g><g class="node" transform="translate(289.9991567850406,-38.26089951113848)"><circle class="outline" cx="0" cy="0" r="25" fill="#4C8EDA" stroke="#2870c2" stroke-width="2px"/><text text-anchor="middle" pointer-events="none" font-family="sans-serif" dy="1.5625" font-size="25" fill="#FFFFFF"/><text text-anchor="middle" pointer-events="none" x="0" y="5" font-size="10px" fill="#FFFFFF" font-family="sans-serif"> 11/29/20…</text></g><g class="node" transform="translate(196.82847346736617,-113.54317635807679)"><circle class="outline" cx="0" cy="0" r="25" fill="#4C8EDA" stroke="#2870c2" stroke-width="2px"/><text text-anchor="middle" pointer-events="none" font-family="sans-serif" dy="1.5625" font-size="25" fill="#FFFFFF"/><text text-anchor="middle" pointer-events="none" x="0" y="5" font-size="10px" fill="#FFFFFF" font-family="sans-serif"> 11/29/20…</text></g><g class="node" transform="translate(187.49831033878218,-54.439869805680125)"><circle class="outline" cx="0" cy="0" r="25" fill="#4C8EDA" stroke="#2870c2" stroke-width="2px"/><text text-anchor="middle" pointer-events="none" font-family="sans-serif" dy="1.5625" font-size="25" fill="#FFFFFF"/><text text-anchor="middle" pointer-events="none" x="0" y="5" font-size="10px" fill="#FFFFFF" font-family="sans-serif"> 11/29/20…</text></g><g class="node" transform="translate(141.02250562298886,-92.12732711483724)"><circle class="outline" cx="0" cy="0" r="25" fill="#4C8EDA" stroke="#2870c2" stroke-width="2px"/><text text-anchor="middle" pointer-events="none" font-family="sans-serif" dy="1.5625" font-size="25" fill="#FFFFFF"/><text text-anchor="middle" pointer-events="none" x="0" y="5" font-size="10px" fill="#FFFFFF" font-family="sans-serif"> 11/30/20…</text></g><g class="node" transform="translate(-71.8123453068714,-65.81302929840425)"><circle class="outline" cx="0" cy="0" r="25" fill="#4C8EDA" stroke="#2870c2" stroke-width="2px"/><text text-anchor="middle" pointer-events="none" font-family="sans-serif" dy="1.5625" font-size="25" fill="#FFFFFF"/><text text-anchor="middle" pointer-events="none" x="0" y="5" font-size="10px" fill="#FFFFFF" font-family="sans-serif"> 11/30/20…</text></g><g class="node" transform="translate(234.11377150135016,-16.73377870956777)"><circle class="outline" cx="0" cy="0" r="25" fill="#4C8EDA" stroke="#2870c2" stroke-width="2px"/><text text-anchor="middle" pointer-events="none" font-family="sans-serif" dy="1.5625" font-size="25" fill="#FFFFFF"/><text text-anchor="middle" pointer-events="none" x="0" y="5" font-size="10px" fill="#FFFFFF" font-family="sans-serif"> 11/29/20…</text></g><g class="node" transform="translate(243.41046314682032,-75.85342149364087)"><circle class="outline" cx="0" cy="0" r="25" fill="#4C8EDA" stroke="#2870c2" stroke-width="2px"/><text text-anchor="middle" pointer-events="none" font-family="sans-serif" dy="1.5625" font-size="25" fill="#FFFFFF"/><text text-anchor="middle" pointer-events="none" x="0" y="5" font-size="10px" fill="#FFFFFF" font-family="sans-serif"> 11/29/20…</text></g><g class="node" transform="translate(-289.2449257103924,188.0011446641636)"><circle class="outline" cx="0" cy="0" r="25" fill="#4C8EDA" stroke="#2870c2" stroke-width="2px"/><text text-anchor="middle" pointer-events="none" font-family="sans-serif" dy="1.5625" font-size="25" fill="#FFFFFF"/><text text-anchor="middle" pointer-events="none" x="0" y="5" font-size="10px" fill="#FFFFFF" font-family="sans-serif"> 11/30/20…</text></g><g class="node" transform="translate(-238.81626817524963,56.32553280879645)"><circle class="outline" cx="0" cy="0" r="25" fill="#ECB5C9" stroke="#da7298" stroke-width="2px"/><text text-anchor="middle" pointer-events="none" font-family="sans-serif" dy="1.5625" font-size="25" fill="#2A2C34"/><text text-anchor="middle" pointer-events="none" x="0" y="5" font-size="10px" fill="#2A2C34" font-family="sans-serif"> EWR</text></g><g class="node" transform="translate(-92.38076301690657,92.50963430394154)"><circle class="outline" cx="0" cy="0" r="25" fill="#4C8EDA" stroke="#2870c2" stroke-width="2px"/><text text-anchor="middle" pointer-events="none" font-family="sans-serif" dy="1.5625" font-size="25" fill="#FFFFFF"/><text text-anchor="middle" pointer-events="none" x="0" y="5" font-size="10px" fill="#FFFFFF" font-family="sans-serif"> 11/30/20…</text></g><g class="node" transform="translate(-336.00402892067996,225.51741178343917)"><circle class="outline" cx="0" cy="0" r="25" fill="#4C8EDA" stroke="#2870c2" stroke-width="2px"/><text text-anchor="middle" pointer-events="none" font-family="sans-serif" dy="1.5625" font-size="25" fill="#FFFFFF"/><text text-anchor="middle" pointer-events="none" x="0" y="5" font-size="10px" fill="#FFFFFF" font-family="sans-serif"> 11/29/20…</text></g><g class="node" transform="translate(-57.79080836453445,43.74254609153553)"><circle class="outline" cx="0" cy="0" r="25" fill="#4C8EDA" stroke="#2870c2" stroke-width="2px"/><text text-anchor="middle" pointer-events="none" font-family="sans-serif" dy="1.5625" font-size="25" fill="#FFFFFF"/><text text-anchor="middle" pointer-events="none" x="0" y="5" font-size="10px" fill="#FFFFFF" font-family="sans-serif"> 11/30/20…</text></g><g class="node" transform="translate(-345.1760734634946,166.3508792950105)"><circle class="outline" cx="0" cy="0" r="25" fill="#4C8EDA" stroke="#2870c2" stroke-width="2px"/><text text-anchor="middle" pointer-events="none" font-family="sans-serif" dy="1.5625" font-size="25" fill="#FFFFFF"/><text text-anchor="middle" pointer-events="none" x="0" y="5" font-size="10px" fill="#FFFFFF" font-family="sans-serif"> 11/29/20…</text></g><g class="node" transform="translate(-279.4038830398699,396.6376366750458)"><circle class="outline" cx="0" cy="0" r="25" fill="#4C8EDA" stroke="#2870c2" stroke-width="2px"/><text text-anchor="middle" pointer-events="none" font-family="sans-serif" dy="1.5625" font-size="25" fill="#FFFFFF"/><text text-anchor="middle" pointer-events="none" x="0" y="5" font-size="10px" fill="#FFFFFF" font-family="sans-serif"> 11/29/20…</text></g><g class="node" transform="translate(-134.60807207947585,309.67002130095204)"><circle class="outline" cx="0" cy="0" r="25" fill="#ECB5C9" stroke="#da7298" stroke-width="2px"/><text text-anchor="middle" pointer-events="none" font-family="sans-serif" dy="1.5625" font-size="25" fill="#2A2C34"/><text text-anchor="middle" pointer-events="none" x="0" y="5" font-size="10px" fill="#2A2C34" font-family="sans-serif"> BOS</text></g><g class="node" transform="translate(21.670230616013235,218.85226954143548)"><circle class="outline" cx="0" cy="0" r="25" fill="#4C8EDA" stroke="#2870c2" stroke-width="2px"/><text text-anchor="middle" pointer-events="none" font-family="sans-serif" dy="1.5625" font-size="25" fill="#FFFFFF"/><text text-anchor="middle" pointer-events="none" x="0" y="5" font-size="10px" fill="#FFFFFF" font-family="sans-serif"> 11/30/20…</text></g><g class="node" transform="translate(-13.23512316391157,170.13859993362715)"><circle class="outline" cx="0" cy="0" r="25" fill="#4C8EDA" stroke="#2870c2" stroke-width="2px"/><text text-anchor="middle" pointer-events="none" font-family="sans-serif" dy="1.5625" font-size="25" fill="#FFFFFF"/><text text-anchor="middle" pointer-events="none" x="0" y="5" font-size="10px" fill="#FFFFFF" font-family="sans-serif"> 11/29/20…</text></g><g class="node" transform="translate(20.74868423052163,-90.50686213495511)"><circle class="outline" cx="0" cy="0" r="25" fill="#4C8EDA" stroke="#2870c2" stroke-width="2px"/><text text-anchor="middle" pointer-events="none" font-family="sans-serif" dy="1.5625" font-size="25" fill="#FFFFFF"/><text text-anchor="middle" pointer-events="none" x="0" y="5" font-size="10px" fill="#FFFFFF" font-family="sans-serif"> 11/30/20…</text></g></g></svg>