<svg xmlns="http://www.w3.org/2000/svg" width="385.83038330078125" height="349.5610046386719" viewBox="-78.14433288574219 -81.84951782226562 385.83038330078125 349.5610046386719"><title>Neo4j Graph Visualization</title><desc>Created using Neo4j (http://www.neo4j.com/)</desc><g class="layer relationships"><g class="relationship" transform="translate(33.52480420901522 0.1427832998175792) rotate(377.0020112937558)"><path class="outline" fill="#A5ABB6" stroke="none" d="M 24.018736134675446,-6.953439040707552 L 24.277555179777966,-5.987513214418485 A 138.8491474554548 138.8491474554548 0 0 1 47.33777000132379,-10.120319475308946 L 47.24503202509455,-11.116010023503975 A 139.8491474554548 139.8491474554548 0 0 0 24.018736134675446,-6.953439040707552 Z M 69.31064270305806,-11.42254238119341 L 69.24559916199209,-10.424659954368678 A 138.8491474554548 138.8491474554548 0 0 1 92.41171777793573,-6.934023410996289 L 91.71605577142394,-4.015795460219314 L 99.33685999750064,-5.797183387598268 L 93.33926711995146,-10.824994012032256 L 92.64360511343966,-7.906766061255281 A 139.8491474554548 139.8491474554548 0 0 0 69.31064270305806,-11.42254238119341"/><text text-anchor="middle" pointer-events="none" font-size="8px" fill="#000000" x="58.27872695891194" y="-8.205239069524907" font-family="sans-serif">road</text></g><g class="relationship" transform="translate(151.77580724725783 36.300282141716075) rotate(374.44823069607077)"><path class="outline" fill="#A5ABB6" stroke="none" d="M 21.40063509461097,-12.933012701892217 L 21.90063509461097,-12.06698729810778 A 84.2092734219764 84.2092734219764 0 0 1 39.13737066642008,-19.593263706131836 L 38.84205994672577,-20.548664972005824 A 85.2092734219764 85.2092734219764 0 0 0 21.40063509461097,-12.933012701892217 Z M 84.9823909511776,-21.726424637634807 L 84.73620742791606,-20.757201405930928 A 84.2092734219764 84.2092734219764 0 0 1 102.334471489332,-14.120109289113111 L 100.96897343456325,-11.448889518592017 L 108.79490062967602,-11.379150456406215 L 104.155135562357,-17.681735649807905 L 102.78963750758825,-15.010515879286809 A 85.2092734219764 85.2092734219764 0 0 0 84.9823909511776,-21.726424637634807"/><text text-anchor="middle" pointer-events="none" font-size="8px" fill="#000000" x="61.84372078761116" y="-20.821307750558077" font-family="sans-serif">twowheeler</text></g><g class="relationship" transform="translate(278.6860562908337 68.99919421087982) rotate(219.1972486977786)"><path class="outline" fill="#A5ABB6" stroke="none" d="M 21.40063509461097,12.933012701892217 L 21.90063509461097,12.06698729810778 A 46.863534290104674 46.863534290104674 0 0 0 22.21893778182358,12.249102638961077 L 21.725729900515315,13.119014120558724 A 47.863534290104674 47.863534290104674 0 0 1 21.40063509461097,12.933012701892217 Z M 65.99817947145843,14.654230678998374 L 65.56641492380638,13.752244329106745 A 46.863534290104674 46.863534290104674 0 0 0 65.8965681355501,13.592615212601615 L 64.58013951738914,10.896874925910986 L 72.40603357418838,10.970238484674523 L 67.65180629309802,17.186935594855786 L 66.33537767493706,14.491195308165157 A 47.863534290104674 47.863534290104674 0 0 1 65.99817947145843,14.654230678998374"/><text text-anchor="middle" pointer-events="none" font-size="8px" fill="#000000" x="43.69098405211768" y="21.81705955828562" transform="rotate(180 43.69098405211768 18.81705955828562)" font-family="sans-serif">twowhee…</text></g><g class="relationship" transform="translate(205.16377810823096 9.041765940486078) rotate(466.8646424988694)"><path class="outline" fill="#A5ABB6" stroke="none" d="M 25 0.5 L 61.6348724429637 0.5 L 61.6348724429637 -0.5 L 25 -0.5 Z M 80.9708099429637 0.5 L 117.6056823859274 0.5 L 117.6056823859274 3.5 L 124.6056823859274 0 L 117.6056823859274 -3.5 L 117.6056823859274 -0.5 L 80.9708099429637 -0.5 Z"/><text text-anchor="middle" pointer-events="none" font-size="8px" fill="#000000" x="71.3028411929637" y="3" transform="rotate(180 71.3028411929637 0)" font-family="sans-serif">trek</text></g><g class="relationship" transform="translate(33.52480420901522 0.1427832998175792) rotate(377.0020112937558)"><path class="outline" fill="#A5ABB6" stroke="none" d="M 24.018736134675446,6.953439040707552 L 24.277555179777966,5.987513214418485 A 138.8491474554548 138.8491474554548 0 0 0 48.665688320248776,10.237573787195231 L 48.58251409247072,11.234108808071824 A 139.8491474554548 139.8491474554548 0 0 1 24.018736134675446,6.953439040707552 Z M 67.97039617041314,11.503442536953912 L 67.91493614527866,10.50498162854933 A 138.8491474554548 138.8491474554548 0 0 0 92.41171777793573,6.934023410996289 L 91.71605577142394,4.015795460219314 L 99.33685999750064,5.797183387598268 L 93.33926711995146,10.824994012032256 L 92.64360511343966,7.906766061255281 A 139.8491474554548 139.8491474554548 0 0 1 67.97039617041314,11.503442536953912"/><text text-anchor="middle" pointer-events="none" font-size="8px" fill="#000000" x="58.27872695891201" y="14.205239069524907" font-family="sans-serif">trek</text></g><g class="relationship" transform="translate(151.77580724725783 36.300282141716075) rotate(374.44823069607077)"><path class="outline" fill="#A5ABB6" stroke="none" d="M 25 0.5 L 51.02167331700922 0.5 L 51.02167331700922 -0.5 L 25 -0.5 Z M 73.03339206700922 0.5 L 99.05506538401843 0.5 L 99.05506538401843 3.5 L 106.05506538401843 0 L 99.05506538401843 -3.5 L 99.05506538401843 -0.5 L 73.03339206700922 -0.5 Z"/><text text-anchor="middle" pointer-events="none" font-size="8px" fill="#000000" x="62.02753269200922" y="3" font-family="sans-serif">road</text></g><g class="relationship" transform="translate(151.77580724725783 36.300282141716075) rotate(374.44823069607077)"><path class="outline" fill="#A5ABB6" stroke="none" d="M 21.40063509461097,12.933012701892217 L 21.90063509461097,12.06698729810778 A 84.2092734219764 84.2092734219764 0 0 0 52.28353035590625,22.52908008986701 L 52.14433260519114,23.519344693998576 A 85.2092734219764 85.2092734219764 0 0 1 21.40063509461097,12.933012701892217 Z M 71.54588334440379,24.014580931230896 L 71.4573881462173,23.018504327802262 A 84.2092734219764 84.2092734219764 0 0 0 102.334471489332,14.120109289113111 L 100.96897343456325,11.448889518592017 L 108.79490062967602,11.379150456406215 L 104.155135562357,17.681735649807905 L 102.78963750758825,15.010515879286809 A 85.2092734219764 85.2092734219764 0 0 1 71.54588334440379,24.014580931230896"/><text text-anchor="middle" pointer-events="none" font-size="8px" fill="#000000" x="61.84372078761117" y="26.821307750558077" font-family="sans-serif">trek</text></g><g class="relationship" transform="translate(278.6860562908337 68.99919421087982) rotate(219.1972486977786)"><path class="outline" fill="#A5ABB6" stroke="none" d="M 25 0.5 L 32.92940860663849 0.5 L 32.92940860663849 -0.5 L 25 -0.5 Z M 54.94112735663849 0.5 L 62.87053596327698 0.5 L 62.87053596327698 3.5 L 69.87053596327698 0 L 62.87053596327698 -3.5 L 62.87053596327698 -0.5 L 54.94112735663849 -0.5 Z"/><text text-anchor="middle" pointer-events="none" font-size="8px" fill="#000000" x="43.93526798163849" y="3" transform="rotate(180 43.93526798163849 0)" font-family="sans-serif">road</text></g><g class="relationship" transform="translate(278.6860562908337 68.99919421087982) rotate(219.1972486977786)"><path class="outline" fill="#A5ABB6" stroke="none" d="M 21.40063509461097,-12.933012701892217 L 21.90063509461097,-12.06698729810778 A 46.863534290104674 46.863534290104674 0 0 1 34.248118869300484,-17.015804267356742 L 34.01159630355146,-17.98743026324791 A 47.863534290104674 47.863534290104674 0 0 0 21.40063509461097,-12.933012701892217 Z M 53.40458980997454,-18.659912699555512 L 53.23593975748604,-17.674236708270527 A 46.863534290104674 46.863534290104674 0 0 1 65.8965681355501,-13.592615212601615 L 64.58013951738914,-10.896874925910986 L 72.40603357418838,-10.970238484674523 L 67.65180629309802,-17.186935594855786 L 66.33537767493706,-14.491195308165157 A 47.863534290104674 47.863534290104674 0 0 0 53.40458980997454,-18.659912699555512"/><text text-anchor="middle" pointer-events="none" font-size="8px" fill="#000000" x="43.690984052117685" y="-15.81705955828562" transform="rotate(180 43.690984052117685 -18.81705955828562)" font-family="sans-serif">trek</text></g><g class="relationship" transform="translate(33.52480420901522 0.1427832998175792) rotate(319.65798859141205)"><path class="outline" fill="#A5ABB6" stroke="none" d="M 21.40063509461097,12.933012701892217 L 21.90063509461097,12.06698729810778 A 33.18508478688981 33.18508478688981 0 0 0 27.84039146283031,14.75663750384718 L 27.51938019847356,15.703712880021683 A 34.18508478688981 34.18508478688981 0 0 1 21.40063509461097,12.933012701892217 Z M 46.85871194060663,16.473567282954612 L 46.61399894648356,15.503971722678408 A 33.18508478688981 33.18508478688981 0 0 0 52.74875899309842,13.294980298182946 L 51.46002506971778,10.585890990919719 L 59.28475636394272,10.739449361505324 L 54.467070890939276,16.907099374533914 L 53.178336967558636,14.198010067270687 A 34.18508478688981 34.18508478688981 0 0 1 46.85871194060663,16.473567282954612"/><text text-anchor="middle" pointer-events="none" font-size="8px" fill="#000000" x="37.15331277760258" y="19.986287720295515" font-family="sans-serif">trek</text></g><g class="relationship" transform="translate(95.91837630347071 -52.849515370134505) rotate(389.5330468590506)"><path class="outline" fill="#A5ABB6" stroke="none" d="M 25 0.5 L 49.61158309165041 0.5 L 49.61158309165041 -0.5 L 25 -0.5 Z M 68.9475205916504 0.5 L 93.55910368330082 0.5 L 93.55910368330082 3.5 L 100.55910368330082 0 L 93.55910368330082 -3.5 L 93.55910368330082 -0.5 L 68.9475205916504 -0.5 Z"/><text text-anchor="middle" pointer-events="none" font-size="8px" fill="#000000" x="59.27955184165041" y="3" font-family="sans-serif">trek</text></g><g class="relationship" transform="translate(33.52480420901522 0.1427832998175792) rotate(319.65798859141205)"><path class="outline" fill="#A5ABB6" stroke="none" d="M 25 0.5 L 26.42439092056813 0.5 L 26.42439092056813 -0.5 L 25 -0.5 Z M 48.43610967056813 0.5 L 49.86050059113626 0.5 L 49.86050059113626 3.5 L 56.86050059113626 0 L 49.86050059113626 -3.5 L 49.86050059113626 -0.5 L 48.43610967056813 -0.5 Z"/><text text-anchor="middle" pointer-events="none" font-size="8px" fill="#000000" x="37.43025029556813" y="3" font-family="sans-serif">road</text></g><g class="relationship" transform="translate(33.52480420901522 0.1427832998175792) rotate(319.65798859141205)"><path class="outline" fill="#A5ABB6" stroke="none" d="M 21.40063509461097,-12.933012701892217 L 21.90063509461097,-12.06698729810778 A 33.18508478688981 33.18508478688981 0 0 1 22.245401276286167,-12.2632996793878 L 21.755790467210016,-13.13524076434469 A 34.18508478688981 34.18508478688981 0 0 0 21.40063509461097,-12.933012701892217 Z M 52.80823041379349,-14.371367117284052 L 52.389478990037254,-13.463266216997017 A 33.18508478688981 33.18508478688981 0 0 1 52.74875899309842,-13.294980298182946 L 51.46002506971778,-10.585890990919719 L 59.28475636394272,-10.739449361505324 L 54.467070890939276,-16.907099374533914 L 53.178336967558636,-14.198010067270687 A 34.18508478688981 34.18508478688981 0 0 0 52.80823041379349,-14.371367117284052"/><text text-anchor="middle" pointer-events="none" font-size="8px" fill="#000000" x="37.15331277760258" y="-13.986287720295515" font-family="sans-serif">Publi…</text></g><g class="relationship" transform="translate(95.91837630347071 -52.849515370134505) rotate(494.81744279237097)"><path class="outline" fill="#A5ABB6" stroke="none" d="M 24.018736134675446,-6.953439040707552 L 24.277555179777966,-5.987513214418485 A 189.71508946624044 189.71508946624044 0 0 1 48.08314085839815,-10.757852034883769 L 47.94980253149046,-11.74892261288386 A 190.71508946624044 190.71508946624044 0 0 0 24.018736134675446,-6.953439040707552 Z M 94.4179165973444,-12.287929941192488 L 94.30760291855131,-11.294033119449352 A 189.71508946624044 189.71508946624044 0 0 1 118.21743573395474,-7.077169746796361 L 117.50840406362526,-4.162161326487805 L 125.13729399306295,-5.908597252745666 L 119.16281129439405,-10.963847640541102 L 118.45377962406457,-8.048839220232546 A 190.71508946624044 190.71508946624044 0 0 0 94.4179165973444,-12.287929941192488"/><text text-anchor="middle" pointer-events="none" font-size="8px" fill="#000000" x="71.17318016803009" y="-9.939102830804103" transform="rotate(180 71.17318016803009 -12.939102830804103)" font-family="sans-serif">twowheeler</text></g><g class="relationship" transform="translate(-9.40670519659336 53.14889245512202) rotate(420.4123373638071)"><path class="outline" fill="#A5ABB6" stroke="none" d="M 24.018736134675446,-6.953439040707552 L 24.277555179777966,-5.987513214418485 A 119.31912036984511 119.31912036984511 0 0 1 30.41252359356094,-7.458700386718959 L 30.20512102215322,-8.436956065656446 A 120.31912036984511 120.31912036984511 0 0 0 24.018736134675446,-6.953439040707552 Z M 76.56681691231503,-9.133512511879175 L 76.38889672082645,-8.149467591430593 A 119.31912036984511 119.31912036984511 0 0 1 82.56529345523636,-6.863251235902924 L 81.87624184153232,-3.9434553742626153 L 89.49299240134775,-5.742096780866908 L 83.48402894017507,-10.756312384756669 L 82.79497732647103,-7.8365165231163605 A 120.31912036984511 120.31912036984511 0 0 0 76.56681691231503,-9.133512511879175"/><text text-anchor="middle" pointer-events="none" font-size="8px" fill="#000000" x="53.35960929492922" y="-7.539692405969021" font-family="sans-serif">twowheeler</text></g><g class="relationship" transform="translate(46.79473006901637 152.13093039760278) rotate(360.0410634478054)"><path class="outline" fill="#A5ABB6" stroke="none" d="M 24.018736134675446,6.953439040707552 L 24.277555179777966,5.987513214418485 A 121.59275448352747 121.59275448352747 0 0 0 30.97586203408166,7.5805093347344155 L 30.77213103170632,8.559536238691166 A 122.59275448352747 122.59275448352747 0 0 1 24.018736134675446,6.953439040707552 Z M 77.14108245983694,9.249665336224083 L 76.9665778020097,8.265008987848375 A 121.59275448352747 121.59275448352747 0 0 0 83.70932573683906,6.8720618814915335 L 83.01945116160594,3.9524603555214344 L 90.63670839330814,5.748954793609284 L 84.62915850381656,10.764863916118331 L 83.93928392858344,7.845262390148233 A 122.59275448352747 122.59275448352747 0 0 1 77.14108245983694,9.249665336224083"/><text text-anchor="middle" pointer-events="none" font-size="8px" fill="#000000" x="53.93111790944311" y="13.61716531763291" font-family="sans-serif">twowheeler</text></g><g class="relationship" transform="translate(95.91837630347071 -52.849515370134505) rotate(494.81744279237097)"><path class="outline" fill="#A5ABB6" stroke="none" d="M 24.018736134675446,6.953439040707552 L 24.277555179777966,5.987513214418485 A 189.71508946624044 189.71508946624044 0 0 0 61.54406515051165,12.082363740142597 L 61.481680190202184,13.080415901468427 A 190.71508946624044 190.71508946624044 0 0 1 24.018736134675446,6.953439040707552 Z M 80.85879465725864,13.305180923875355 L 80.81957719837156,12.305950224327717 A 189.71508946624044 189.71508946624044 0 0 0 118.21743573395474,7.077169746796361 L 117.50840406362526,4.162161326487805 L 125.13729399306295,5.908597252745666 L 119.16281129439405,10.963847640541102 L 118.45377962406457,8.048839220232546 A 190.71508946624044 190.71508946624044 0 0 1 80.85879465725864,13.305180923875355"/><text text-anchor="middle" pointer-events="none" font-size="8px" fill="#000000" x="71.17318016803014" y="15.939102830804103" transform="rotate(180 71.17318016803014 12.939102830804103)" font-family="sans-serif">trek</text></g><g class="relationship" transform="translate(-9.40670519659336 53.14889245512202) rotate(420.4123373638071)"><path class="outline" fill="#A5ABB6" stroke="none" d="M 24.018736134675446,6.953439040707552 L 24.277555179777966,5.987513214418485 A 119.31912036984511 119.31912036984511 0 0 0 43.7568565566176,9.50711026295292 L 43.661291324621146,10.502533432481073 A 120.31912036984511 120.31912036984511 0 0 1 24.018736134675446,6.953439040707552 Z M 63.05466613335685,10.79390716197193 L 62.989048547949686,9.796062318078185 A 119.31912036984511 119.31912036984511 0 0 0 82.56529345523636,6.863251235902924 L 81.87624184153232,3.9434553742626153 L 89.49299240134775,5.742096780866908 L 83.48402894017507,10.756312384756669 L 82.79497732647103,7.8365165231163605 A 120.31912036984511 120.31912036984511 0 0 1 63.05466613335685,10.79390716197193"/><text text-anchor="middle" pointer-events="none" font-size="8px" fill="#000000" x="53.35960929492924" y="13.53969240596902" font-family="sans-serif">trek</text></g><g class="relationship" transform="translate(46.79473006901637 152.13093039760278) rotate(360.0410634478054)"><path class="outline" fill="#A5ABB6" stroke="none" d="M 24.018736134675446,-6.953439040707552 L 24.277555179777966,-5.987513214418485 A 121.59275448352747 121.59275448352747 0 0 1 44.32697711269904,-9.593110721268019 L 44.23304800711703,-10.588689609716624 A 122.59275448352747 122.59275448352747 0 0 0 24.018736134675446,-6.953439040707552 Z M 63.62573964261055,-10.87731940109505 L 63.5614808380082,-9.87938613377149 A 121.59275448352747 121.59275448352747 0 0 1 83.70932573683906,-6.8720618814915335 L 83.01945116160594,-3.9524603555214344 L 90.63670839330814,-5.748954793609284 L 84.62915850381656,-10.764863916118331 L 83.93928392858344,-7.845262390148233 A 122.59275448352747 122.59275448352747 0 0 0 63.62573964261055,-10.87731940109505"/><text text-anchor="middle" pointer-events="none" font-size="8px" fill="#000000" x="53.93111790944311" y="-7.61716531763291" font-family="sans-serif">trek</text></g><g class="relationship" transform="translate(95.91837630347071 -52.849515370134505) rotate(417.93051042258077)"><path class="outline" fill="#A5ABB6" stroke="none" d="M 25 0.5 L 39.43369231703263 0.5 L 39.43369231703263 -0.5 L 25 -0.5 Z M 58.76962981703263 0.5 L 73.20332213406526 0.5 L 73.20332213406526 3.5 L 80.20332213406526 0 L 73.20332213406526 -3.5 L 73.20332213406526 -0.5 L 58.76962981703263 -0.5 Z"/><text text-anchor="middle" pointer-events="none" font-size="8px" fill="#000000" x="49.10166106703263" y="3" font-family="sans-serif">trek</text></g><g class="relationship" transform="translate(-9.40670519659336 53.14889245512202) rotate(467.9673638315418)"><path class="outline" fill="#A5ABB6" stroke="none" d="M 24.018736134675446,-6.953439040707552 L 24.277555179777966,-5.987513214418485 A 149.0752591079576 149.0752591079576 0 0 1 37.83346203102485,-8.951224108294582 L 37.66557629660288,-9.937030570120413 A 150.0752591079576 150.0752591079576 0 0 0 24.018736134675446,-6.953439040707552 Z M 84.09437078047787,-10.557446452403582 L 83.9528864377809,-9.567505958852792 A 149.0752591079576 149.0752591079576 0 0 1 97.5831454437837,-6.967076715162154 L 96.88439621615778,-4.049586438076011 L 104.50708096158903,-5.8229102302160225 L 98.51481108061826,-10.85706375127701 L 97.81606185299233,-7.939573474190867 A 150.0752591079576 150.0752591079576 0 0 0 84.09437078047787,-10.557446452403582"/><text text-anchor="middle" pointer-events="none" font-size="8px" fill="#000000" x="60.86251460532608" y="-8.553776988535077" transform="rotate(180 60.86251460532608 -11.553776988535077)" font-family="sans-serif">twowheeler</text></g><g class="relationship" transform="translate(-49.14432804673892 175.68617206552216) rotate(346.2054359616766)"><path class="outline" fill="#A5ABB6" stroke="none" d="M 21.40063509461097,12.933012701892217 L 21.90063509461097,12.06698729810778 A 50.948216758877905 50.948216758877905 0 0 0 23.625076916486908,13.018633297386202 L 23.158923867991355,13.903337392198871 A 51.948216758877905 51.948216758877905 0 0 1 21.40063509461097,12.933012701892217 Z M 68.4717861248983,15.415918326030301 L 68.06566934231898,14.502097140618503 A 50.948216758877905 50.948216758877905 0 0 0 69.8497351709334,13.667568037382656 L 68.52633310939017,10.975244322911617 L 76.35239084828969,11.028350512860287 L 71.61427125299103,17.257332990010706 L 70.2908691914478,14.565009275539667 A 51.948216758877905 51.948216758877905 0 0 1 68.4717861248983,15.415918326030301"/><text text-anchor="middle" pointer-events="none" font-size="8px" fill="#000000" x="45.658315341372735" y="22.364114144769957" font-family="sans-serif">twowheeler</text></g><g class="relationship" transform="translate(-9.40670519659336 53.14889245512202) rotate(467.9673638315418)"><path class="outline" fill="#A5ABB6" stroke="none" d="M 24.018736134675446,6.953439040707552 L 24.277555179777966,5.987513214418485 A 149.0752591079576 149.0752591079576 0 0 0 51.24527163977173,10.613894571046814 L 51.167352608671294,11.610854261602242 A 150.0752591079576 150.0752591079576 0 0 1 24.018736134675446,6.953439040707552 Z M 70.5526896843668,11.869895469517957 L 70.50143794347642,10.871209703595724 A 149.0752591079576 149.0752591079576 0 0 0 97.5831454437837,6.967076715162154 L 96.88439621615778,4.049586438076011 L 104.50708096158903,5.8229102302160225 L 98.51481108061826,10.85706375127701 L 97.81606185299233,7.939573474190867 A 150.0752591079576 150.0752591079576 0 0 1 70.5526896843668,11.869895469517957"/><text text-anchor="middle" pointer-events="none" font-size="8px" fill="#000000" x="60.8625146053261" y="14.553776988535077" transform="rotate(180 60.8625146053261 11.553776988535077)" font-family="sans-serif">trek</text></g><g class="relationship" transform="translate(-49.14432804673892 175.68617206552216) rotate(346.2054359616766)"><path class="outline" fill="#A5ABB6" stroke="none" d="M 25 0.5 L 34.88835152610752 0.5 L 34.88835152610752 -0.5 L 25 -0.5 Z M 56.90007027610752 0.5 L 66.78842180221504 0.5 L 66.78842180221504 3.5 L 73.78842180221504 0 L 66.78842180221504 -3.5 L 66.78842180221504 -0.5 L 56.90007027610752 -0.5 Z"/><text text-anchor="middle" pointer-events="none" font-size="8px" fill="#000000" x="45.89421090110752" y="3" font-family="sans-serif">road</text></g><g class="relationship" transform="translate(-49.14432804673892 175.68617206552216) rotate(346.2054359616766)"><path class="outline" fill="#A5ABB6" stroke="none" d="M 21.40063509461097,-12.933012701892217 L 21.90063509461097,-12.06698729810778 A 50.948216758877905 50.948216758877905 0 0 1 36.19245511581172,-17.650444581919793 L 35.972971705604046,-18.62606081417693 A 51.948216758877905 51.948216758877905 0 0 0 21.40063509461097,-12.933012701892217 Z M 55.371317457540805,-19.27359368830645 L 55.217383896729515,-18.285512487768777 A 50.948216758877905 50.948216758877905 0 0 1 69.8497351709334,-13.667568037382656 L 68.52633310939017,-10.975244322911617 L 76.35239084828969,-11.028350512860287 L 71.61427125299103,-17.257332990010706 L 70.2908691914478,-14.565009275539667 A 51.948216758877905 51.948216758877905 0 0 0 55.371317457540805,-19.27359368830645"/><text text-anchor="middle" pointer-events="none" font-size="8px" fill="#000000" x="45.65831534137271" y="-16.364114144769957" font-family="sans-serif">trek</text></g><g class="relationship" transform="translate(-49.14432804673892 175.68617206552216) rotate(389.2794682451398)"><path class="outline" fill="#A5ABB6" stroke="none" d="M 25 0.5 L 51.26586086765454 0.5 L 51.26586086765454 -0.5 L 25 -0.5 Z M 70.60179836765454 0.5 L 96.86765923530908 0.5 L 96.86765923530908 3.5 L 103.86765923530908 0 L 96.86765923530908 -3.5 L 96.86765923530908 -0.5 L 70.60179836765454 -0.5 Z"/><text text-anchor="middle" pointer-events="none" font-size="8px" fill="#000000" x="60.93382961765454" y="3" font-family="sans-serif">trek</text></g><g class="relationship" transform="translate(63.259789907299535 238.71146749332917) rotate(318.7123648237048)"><path class="outline" fill="#A5ABB6" stroke="none" d="M 25 0.5 L 52.3768630642912 0.5 L 52.3768630642912 -0.5 L 25 -0.5 Z M 71.7128005642912 0.5 L 99.0896636285824 0.5 L 99.0896636285824 3.5 L 106.0896636285824 0 L 99.0896636285824 -3.5 L 99.0896636285824 -0.5 L 71.7128005642912 -0.5 Z"/><text text-anchor="middle" pointer-events="none" font-size="8px" fill="#000000" x="62.0448318142912" y="3" font-family="sans-serif">trek</text></g></g><g class="layer nodes"><g class="node" transform="translate(33.52480420901522,0.1427832998175792)"><circle class="outline" cx="0" cy="0" r="25" fill="#F16667" stroke="#eb2728" stroke-width="2px"/><text text-anchor="middle" pointer-events="none" font-family="sans-serif" dy="1.5625" font-size="25" fill="#FFFFFF"/><text text-anchor="middle" pointer-events="none" x="0" y="5" font-size="10px" fill="#FFFFFF" font-family="sans-serif"> Darjeeling</text></g><g class="node" transform="translate(161.76142165253307,152.21332616196136)"><circle class="outline" cx="0" cy="0" r="25" fill="#D9C8AE" stroke="#c0a378" stroke-width="2px"/><text text-anchor="middle" pointer-events="none" font-family="sans-serif" dy="1.5625" font-size="25" fill="#2A2C34"/><text text-anchor="middle" pointer-events="none" x="0" y="5" font-size="10px" fill="#2A2C34" font-family="sans-serif"> Sandak…</text></g><g class="node" transform="translate(151.77580724725783,36.300282141716075)"><circle class="outline" cx="0" cy="0" r="25" fill="#8DCC93" stroke="#5db665" stroke-width="2px"/><text text-anchor="middle" pointer-events="none" font-family="sans-serif" dy="1.5625" font-size="25" fill="#2A2C34"/><text text-anchor="middle" pointer-events="none" x="0" y="5" font-size="10px" fill="#2A2C34" font-family="sans-serif"> Tumbling</text></g><g class="node" transform="translate(278.6860562908337,68.99919421087982)"><circle class="outline" cx="0" cy="0" r="25" fill="#8DCC93" stroke="#5db665" stroke-width="2px"/><text text-anchor="middle" pointer-events="none" font-family="sans-serif" dy="1.5625" font-size="25" fill="#2A2C34"/><text text-anchor="middle" pointer-events="none" x="0" y="5" font-size="10px" fill="#2A2C34" font-family="sans-serif"> Gairibus</text></g><g class="node" transform="translate(205.16377810823096,9.041765940486078)"><circle class="outline" cx="0" cy="0" r="25" fill="#8DCC93" stroke="#5db665" stroke-width="2px"/><text text-anchor="middle" pointer-events="none" font-family="sans-serif" dy="1.5625" font-size="25" fill="#2A2C34"/><text text-anchor="middle" pointer-events="none" x="0" y="5" font-size="10px" fill="#2A2C34" font-family="sans-serif"> BhikeBh…</text></g><g class="node" transform="translate(95.91837630347071,-52.849515370134505)"><circle class="outline" cx="0" cy="0" r="25" fill="#F16667" stroke="#eb2728" stroke-width="2px"/><text text-anchor="middle" pointer-events="none" font-family="sans-serif" dy="1.5625" font-size="25" fill="#FFFFFF"/><text text-anchor="middle" pointer-events="none" x="0" y="5" font-size="10px" fill="#FFFFFF" font-family="sans-serif"> Rimbik</text></g><g class="node" transform="translate(-9.40670519659336,53.14889245512202)"><circle class="outline" cx="0" cy="0" r="25" fill="#8DCC93" stroke="#5db665" stroke-width="2px"/><text text-anchor="middle" pointer-events="none" font-family="sans-serif" dy="1.5625" font-size="25" fill="#2A2C34"/><text text-anchor="middle" pointer-events="none" x="0" y="5" font-size="10px" fill="#2A2C34" font-family="sans-serif"> Sirikhola</text></g><g class="node" transform="translate(46.79473006901637,152.13093039760278)"><circle class="outline" cx="0" cy="0" r="25" fill="#8DCC93" stroke="#5db665" stroke-width="2px"/><text text-anchor="middle" pointer-events="none" font-family="sans-serif" dy="1.5625" font-size="25" fill="#2A2C34"/><text text-anchor="middle" pointer-events="none" x="0" y="5" font-size="10px" fill="#2A2C34" font-family="sans-serif"> Gurdum</text></g><g class="node" transform="translate(-49.14432804673892,175.68617206552216)"><circle class="outline" cx="0" cy="0" r="25" fill="#8DCC93" stroke="#5db665" stroke-width="2px"/><text text-anchor="middle" pointer-events="none" font-family="sans-serif" dy="1.5625" font-size="25" fill="#2A2C34"/><text text-anchor="middle" pointer-events="none" x="0" y="5" font-size="10px" fill="#2A2C34" font-family="sans-serif"> Rammam</text></g><g class="node" transform="translate(63.259789907299535,238.71146749332917)"><circle class="outline" cx="0" cy="0" r="25" fill="#D9C8AE" stroke="#c0a378" stroke-width="2px"/><text text-anchor="middle" pointer-events="none" font-family="sans-serif" dy="1.5625" font-size="25" fill="#2A2C34"/><text text-anchor="middle" pointer-events="none" x="0" y="5" font-size="10px" fill="#2A2C34" font-family="sans-serif"> Sabargr…</text></g></g></svg>