<svg xmlns="http://www.w3.org/2000/svg" width="403.55474853515625" height="401.2874450683594" viewBox="-95.76304626464844 -88.98616790771484 403.55474853515625 401.2874450683594"><title>Neo4j Graph Visualization</title><desc>Created using Neo4j (http://www.neo4j.com/)</desc><g class="layer relationships"><g class="relationship" transform="translate(278.79169192310667 98.65304176004217) rotate(461.24637463995805)"><path class="outline" fill="#A5ABB6" stroke="none" d="M 25 0.5 L 33.13281632816449 0.5 L 33.13281632816449 -0.5 L 25 -0.5 Z M 67.5781288281645 0.5 L 75.71094515632898 0.5 L 75.71094515632898 3.5 L 82.71094515632898 0 L 75.71094515632898 -3.5 L 75.71094515632898 -0.5 L 67.5781288281645 -0.5 Z"/><text text-anchor="middle" pointer-events="none" font-size="8px" fill="#000000" x="50.35547257816449" y="3" transform="rotate(180 50.35547257816449 0)" font-family="sans-serif">ORIGIN</text></g><g class="relationship" transform="translate(278.79169192310667 98.65304176004217) rotate(246.83153369356125)"><path class="outline" fill="#A5ABB6" stroke="none" d="M 25 0.5 L 26.373992594072597 0.5 L 26.373992594072597 -0.5 L 25 -0.5 Z M 75.0458675940726 0.5 L 76.4198601881452 0.5 L 76.4198601881452 3.5 L 83.4198601881452 0 L 76.4198601881452 -3.5 L 76.4198601881452 -0.5 L 75.0458675940726 -0.5 Z"/><text text-anchor="middle" pointer-events="none" font-size="8px" fill="#000000" x="50.7099300940726" y="3" transform="rotate(180 50.7099300940726 0)" font-family="sans-serif">DESTINA…</text></g><g class="relationship" transform="translate(144.02970007283162 -59.98616681036981) rotate(392.62609736897554)"><path class="outline" fill="#A5ABB6" stroke="none" d="M 25 0.5 L 33.95851304659584 0.5 L 33.95851304659584 -0.5 L 25 -0.5 Z M 68.40382554659584 0.5 L 77.36233859319168 0.5 L 77.36233859319168 3.5 L 84.36233859319168 0 L 77.36233859319168 -3.5 L 77.36233859319168 -0.5 L 68.40382554659584 -0.5 Z"/><text text-anchor="middle" pointer-events="none" font-size="8px" fill="#000000" x="51.18116929659584" y="3" font-family="sans-serif">ORIGIN</text></g><g class="relationship" transform="translate(144.02970007283162 -59.98616681036981) rotate(538.5896209475611)"><path class="outline" fill="#A5ABB6" stroke="none" d="M 25 0.5 L 27.013902965346887 0.5 L 27.013902965346887 -0.5 L 25 -0.5 Z M 75.68577796534689 0.5 L 77.69968093069377 0.5 L 77.69968093069377 3.5 L 84.69968093069377 0 L 77.69968093069377 -3.5 L 77.69968093069377 -0.5 L 75.68577796534689 -0.5 Z"/><text text-anchor="middle" pointer-events="none" font-size="8px" fill="#000000" x="51.34984046534689" y="3" transform="rotate(180 51.34984046534689 0)" font-family="sans-serif">DESTINA…</text></g><g class="relationship" transform="translate(-47.89574253843829 13.694464552101856) rotate(319.20937990279583)"><path class="outline" fill="#A5ABB6" stroke="none" d="M 25 0.5 L 26.488970907938672 0.5 L 26.488970907938672 -0.5 L 25 -0.5 Z M 75.16084590793866 0.5 L 76.64981681587734 0.5 L 76.64981681587734 3.5 L 83.64981681587734 0 L 76.64981681587734 -3.5 L 76.64981681587734 -0.5 L 75.16084590793866 -0.5 Z"/><text text-anchor="middle" pointer-events="none" font-size="8px" fill="#000000" x="50.82490840793867" y="3" font-family="sans-serif">DESTINA…</text></g><g class="relationship" transform="translate(-47.89574253843829 13.694464552101856) rotate(459.9399978081546)"><path class="outline" fill="#A5ABB6" stroke="none" d="M 25 0.5 L 33.928188539605216 0.5 L 33.928188539605216 -0.5 L 25 -0.5 Z M 68.37350103960522 0.5 L 77.30168957921043 0.5 L 77.30168957921043 3.5 L 84.30168957921043 0 L 77.30168957921043 -3.5 L 77.30168957921043 -0.5 L 68.37350103960522 -0.5 Z"/><text text-anchor="middle" pointer-events="none" font-size="8px" fill="#000000" x="51.150844789605216" y="3" transform="rotate(180 51.150844789605216 0)" font-family="sans-serif">ORIGIN</text></g><g class="relationship" transform="translate(-31.888405363127852 223.47223429504285) rotate(251.14408319876674)"><path class="outline" fill="#A5ABB6" stroke="none" d="M 25 0.5 L 33.23121654949779 0.5 L 33.23121654949779 -0.5 L 25 -0.5 Z M 67.67652904949779 0.5 L 75.90774559899558 0.5 L 75.90774559899558 3.5 L 82.90774559899558 0 L 75.90774559899558 -3.5 L 75.90774559899558 -0.5 L 67.67652904949779 -0.5 Z"/><text text-anchor="middle" pointer-events="none" font-size="8px" fill="#000000" x="50.45387279949779" y="3" transform="rotate(180 50.45387279949779 0)" font-family="sans-serif">ORIGIN</text></g><g class="relationship" transform="translate(-31.888405363127852 223.47223429504285) rotate(393.8589694886482)"><path class="outline" fill="#A5ABB6" stroke="none" d="M 25 0.5 L 25.85605031638766 0.5 L 25.85605031638766 -0.5 L 25 -0.5 Z M 74.52792531638767 0.5 L 75.38397563277532 0.5 L 75.38397563277532 3.5 L 82.38397563277532 0 L 75.38397563277532 -3.5 L 75.38397563277532 -0.5 L 74.52792531638767 -0.5 Z"/><text text-anchor="middle" pointer-events="none" font-size="8px" fill="#000000" x="50.19198781638766" y="3" font-family="sans-serif">DESTINA…</text></g></g><g class="layer nodes"><g class="node" transform="translate(57.28448112242647,283.3012785673269)"><circle class="outline" cx="0" cy="0" r="25" fill="#ECB5C9" stroke="#da7298" stroke-width="2px"/><text text-anchor="middle" pointer-events="none" font-family="sans-serif" dy="1.5625" font-size="25" fill="#2A2C34"/><text text-anchor="middle" pointer-events="none" x="0" y="5" font-size="10px" fill="#2A2C34" font-family="sans-serif"> DAY</text></g><g class="node" transform="translate(257.7850133877556,204.29568070560302)"><circle class="outline" cx="0" cy="0" r="25" fill="#ECB5C9" stroke="#da7298" stroke-width="2px"/><text text-anchor="middle" pointer-events="none" font-family="sans-serif" dy="1.5625" font-size="25" fill="#2A2C34"/><text text-anchor="middle" pointer-events="none" x="0" y="5" font-size="10px" fill="#2A2C34" font-family="sans-serif"> LAX</text></g><g class="node" transform="translate(278.79169192310667,98.65304176004217)"><circle class="outline" cx="0" cy="0" r="25" fill="#4C8EDA" stroke="#2870c2" stroke-width="2px"/><text text-anchor="middle" pointer-events="none" font-family="sans-serif" dy="1.5625" font-size="25" fill="#FFFFFF"/><text text-anchor="middle" pointer-events="none" x="0" y="5" font-size="10px" fill="#FFFFFF" font-family="sans-serif"> 11/29/20…</text></g><g class="node" transform="translate(236.13541706799916,-1.022974907471547)"><circle class="outline" cx="0" cy="0" r="25" fill="#ECB5C9" stroke="#da7298" stroke-width="2px"/><text text-anchor="middle" pointer-events="none" font-family="sans-serif" dy="1.5625" font-size="25" fill="#2A2C34"/><text text-anchor="middle" pointer-events="none" x="0" y="5" font-size="10px" fill="#2A2C34" font-family="sans-serif"> LAS</text></g><g class="node" transform="translate(144.02970007283162,-59.98616681036981)"><circle class="outline" cx="0" cy="0" r="25" fill="#4C8EDA" stroke="#2870c2" stroke-width="2px"/><text text-anchor="middle" pointer-events="none" font-family="sans-serif" dy="1.5625" font-size="25" fill="#FFFFFF"/><text text-anchor="middle" pointer-events="none" x="0" y="5" font-size="10px" fill="#FFFFFF" font-family="sans-serif"> 11/29/20…</text></g><g class="node" transform="translate(34.36325293221422,-57.286098690823124)"><circle class="outline" cx="0" cy="0" r="25" fill="#ECB5C9" stroke="#da7298" stroke-width="2px"/><text text-anchor="middle" pointer-events="none" font-family="sans-serif" dy="1.5625" font-size="25" fill="#2A2C34"/><text text-anchor="middle" pointer-events="none" x="0" y="5" font-size="10px" fill="#2A2C34" font-family="sans-serif"> DEN</text></g><g class="node" transform="translate(-47.89574253843829,13.694464552101856)"><circle class="outline" cx="0" cy="0" r="25" fill="#4C8EDA" stroke="#2870c2" stroke-width="2px"/><text text-anchor="middle" pointer-events="none" font-family="sans-serif" dy="1.5625" font-size="25" fill="#FFFFFF"/><text text-anchor="middle" pointer-events="none" x="0" y="5" font-size="10px" fill="#FFFFFF" font-family="sans-serif"> 11/29/20…</text></g><g class="node" transform="translate(-66.76304569479015,121.3554334149)"><circle class="outline" cx="0" cy="0" r="25" fill="#ECB5C9" stroke="#da7298" stroke-width="2px"/><text text-anchor="middle" pointer-events="none" font-family="sans-serif" dy="1.5625" font-size="25" fill="#2A2C34"/><text text-anchor="middle" pointer-events="none" x="0" y="5" font-size="10px" fill="#2A2C34" font-family="sans-serif"> MSP</text></g><g class="node" transform="translate(-31.888405363127852,223.47223429504285)"><circle class="outline" cx="0" cy="0" r="25" fill="#4C8EDA" stroke="#2870c2" stroke-width="2px"/><text text-anchor="middle" pointer-events="none" font-family="sans-serif" dy="1.5625" font-size="25" fill="#FFFFFF"/><text text-anchor="middle" pointer-events="none" x="0" y="5" font-size="10px" fill="#FFFFFF" font-family="sans-serif"> 11/23/20…</text></g></g></svg>