<svg xmlns="http://www.w3.org/2000/svg" width="654.3522338867188" height="648.494873046875" viewBox="-233.7406005859375 -216.15257263183594 654.3522338867188 648.494873046875"><title>Neo4j Graph Visualization</title><desc>Created using Neo4j (http://www.neo4j.com/)</desc><g class="layer relationships"><g class="relationship" transform="translate(235.45800402253963 131.94369244127532) rotate(181.33270521053714)"><path class="outline" fill="#A5ABB6" stroke="none" d="M 25 0.5 L 62.001154375929545 0.5 L 62.001154375929545 -0.5 L 25 -0.5 Z M 96.44646687592954 0.5 L 133.4476212518591 0.5 L 133.4476212518591 3.5 L 140.4476212518591 0 L 133.4476212518591 -3.5 L 133.4476212518591 -0.5 L 96.44646687592954 -0.5 Z"/><text text-anchor="middle" pointer-events="none" font-size="8px" fill="#000000" x="79.22381062592954" y="3" transform="rotate(180 79.22381062592954 0)" font-family="sans-serif">ORIGIN</text></g><g class="relationship" transform="translate(235.45800402253963 131.94369244127532) rotate(354.26619900876517)"><path class="outline" fill="#A5ABB6" stroke="none" d="M 25 0.5 L 45.37565210876663 0.5 L 45.37565210876663 -0.5 L 25 -0.5 Z M 104.56315210876663 0.5 L 124.93880421753326 0.5 L 124.93880421753326 3.5 L 131.93880421753326 0 L 124.93880421753326 -3.5 L 124.93880421753326 -0.5 L 104.56315210876663 -0.5 Z"/><text text-anchor="middle" pointer-events="none" font-size="8px" fill="#000000" x="74.96940210876663" y="3" font-family="sans-serif">DESTINATION</text></g><g class="relationship" transform="translate(172.94295942057852 297.29411252982896) rotate(238.69664204242355)"><path class="outline" fill="#A5ABB6" stroke="none" d="M 25 0.5 L 78.2899725749847 0.5 L 78.2899725749847 -0.5 L 25 -0.5 Z M 112.7352850749847 0.5 L 166.0252576499694 0.5 L 166.0252576499694 3.5 L 173.0252576499694 0 L 166.0252576499694 -3.5 L 166.0252576499694 -0.5 L 112.7352850749847 -0.5 Z"/><text text-anchor="middle" pointer-events="none" font-size="8px" fill="#000000" x="95.5126288249847" y="3" transform="rotate(180 95.5126288249847 0)" font-family="sans-serif">ORIGIN</text></g><g class="relationship" transform="translate(172.94295942057852 297.29411252982896) rotate(487.78744236900116)"><path class="outline" fill="#A5ABB6" stroke="none" d="M 25 0.5 L 34.00080067213979 0.5 L 34.00080067213979 -0.5 L 25 -0.5 Z M 93.18830067213979 0.5 L 102.18910134427958 0.5 L 102.18910134427958 3.5 L 109.18910134427958 0 L 102.18910134427958 -3.5 L 102.18910134427958 -0.5 L 93.18830067213979 -0.5 Z"/><text text-anchor="middle" pointer-events="none" font-size="8px" fill="#000000" x="63.59455067213979" y="3" transform="rotate(180 63.59455067213979 0)" font-family="sans-serif">DESTINATION</text></g><g class="relationship" transform="translate(79.4697406793138 252.27517736580455) rotate(265.66444328797456)"><path class="outline" fill="#A5ABB6" stroke="none" d="M 25 0.5 L 41.54526149600684 0.5 L 41.54526149600684 -0.5 L 25 -0.5 Z M 75.99057399600684 0.5 L 92.53583549201367 0.5 L 92.53583549201367 3.5 L 99.53583549201367 0 L 92.53583549201367 -3.5 L 92.53583549201367 -0.5 L 75.99057399600684 -0.5 Z"/><text text-anchor="middle" pointer-events="none" font-size="8px" fill="#000000" x="58.76791774600684" y="3" transform="rotate(180 58.76791774600684 0)" font-family="sans-serif">ORIGIN</text></g><g class="relationship" transform="translate(79.4697406793138 252.27517736580455) rotate(445.7406516681541)"><path class="outline" fill="#A5ABB6" stroke="none" d="M 25 0.5 L 42.64902022084915 0.5 L 42.64902022084915 -0.5 L 25 -0.5 Z M 101.83652022084915 0.5 L 119.4855404416983 0.5 L 119.4855404416983 3.5 L 126.4855404416983 0 L 119.4855404416983 -3.5 L 119.4855404416983 -0.5 L 101.83652022084915 -0.5 Z"/><text text-anchor="middle" pointer-events="none" font-size="8px" fill="#000000" x="72.24277022084915" y="3" font-family="sans-serif">DESTINATION</text></g><g class="relationship" transform="translate(223.69524502452197 196.66010955944117) rotate(204.0495949331592)"><path class="outline" fill="#A5ABB6" stroke="none" d="M 25 0.5 L 63.39981307303866 0.5 L 63.39981307303866 -0.5 L 25 -0.5 Z M 97.84512557303866 0.5 L 136.24493864607732 0.5 L 136.24493864607732 3.5 L 143.24493864607732 0 L 136.24493864607732 -3.5 L 136.24493864607732 -0.5 L 97.84512557303866 -0.5 Z"/><text text-anchor="middle" pointer-events="none" font-size="8px" fill="#000000" x="80.62246932303866" y="3" transform="rotate(180 80.62246932303866 0)" font-family="sans-serif">ORIGIN</text></g><g class="relationship" transform="translate(223.69524502452197 196.66010955944117) rotate(386.33422062247473)"><path class="outline" fill="#A5ABB6" stroke="none" d="M 25 0.5 L 44.479019411128874 0.5 L 44.479019411128874 -0.5 L 25 -0.5 Z M 103.66651941112887 0.5 L 123.14553882225775 0.5 L 123.14553882225775 3.5 L 130.14553882225775 0 L 123.14553882225775 -3.5 L 123.14553882225775 -0.5 L 103.66651941112887 -0.5 Z"/><text text-anchor="middle" pointer-events="none" font-size="8px" fill="#000000" x="74.07276941112887" y="3" font-family="sans-serif">DESTINATION</text></g><g class="relationship" transform="translate(113.14096288001633 301.7344735993188) rotate(256.0643802751945)"><path class="outline" fill="#A5ABB6" stroke="none" d="M 25 0.5 L 68.72957658948913 0.5 L 68.72957658948913 -0.5 L 25 -0.5 Z M 103.17488908948913 0.5 L 146.90446567897826 0.5 L 146.90446567897826 3.5 L 153.90446567897826 0 L 146.90446567897826 -3.5 L 146.90446567897826 -0.5 L 103.17488908948913 -0.5 Z"/><text text-anchor="middle" pointer-events="none" font-size="8px" fill="#000000" x="85.95223283948913" y="3" transform="rotate(180 85.95223283948913 0)" font-family="sans-serif">ORIGIN</text></g><g class="relationship" transform="translate(113.14096288001633 301.7344735993188) rotate(462.44317135549716)"><path class="outline" fill="#A5ABB6" stroke="none" d="M 25 0.5 L 26.85803831354717 0.5 L 26.85803831354717 -0.5 L 25 -0.5 Z M 70.19397581354717 0.5 L 72.05201412709434 0.5 L 72.05201412709434 3.5 L 79.05201412709434 0 L 72.05201412709434 -3.5 L 72.05201412709434 -0.5 L 70.19397581354717 -0.5 Z"/><text text-anchor="middle" pointer-events="none" font-size="8px" fill="#000000" x="48.52600706354717" y="3" transform="rotate(180 48.52600706354717 0)" font-family="sans-serif">DESTIN…</text></g><g class="relationship" transform="translate(97.84454115461384 -32.27882497091585) rotate(459.83049475440686)"><path class="outline" fill="#A5ABB6" stroke="none" d="M 25 0.5 L 60.65953340190491 0.5 L 60.65953340190491 -0.5 L 25 -0.5 Z M 95.10484590190491 0.5 L 130.76437930380982 0.5 L 130.76437930380982 3.5 L 137.76437930380982 0 L 130.76437930380982 -3.5 L 130.76437930380982 -0.5 L 95.10484590190491 -0.5 Z"/><text text-anchor="middle" pointer-events="none" font-size="8px" fill="#000000" x="77.88218965190491" y="3" transform="rotate(180 77.88218965190491 0)" font-family="sans-serif">ORIGIN</text></g><g class="relationship" transform="translate(97.84454115461384 -32.27882497091585) rotate(283.6756859043986)"><path class="outline" fill="#A5ABB6" stroke="none" d="M 25 0.5 L 46.60255077097983 0.5 L 46.60255077097983 -0.5 L 25 -0.5 Z M 105.79005077097983 0.5 L 127.39260154195966 0.5 L 127.39260154195966 3.5 L 134.39260154195966 0 L 127.39260154195966 -3.5 L 127.39260154195966 -0.5 L 105.79005077097983 -0.5 Z"/><text text-anchor="middle" pointer-events="none" font-size="8px" fill="#000000" x="76.19630077097983" y="3" font-family="sans-serif">DESTINATION</text></g><g class="relationship" transform="translate(219.21393933433444 5.451094019313407) rotate(500.5715248570023)"><path class="outline" fill="#A5ABB6" stroke="none" d="M 25 0.5 L 75.8305035878484 0.5 L 75.8305035878484 -0.5 L 25 -0.5 Z M 110.2758160878484 0.5 L 161.1063196756968 0.5 L 161.1063196756968 3.5 L 168.1063196756968 0 L 161.1063196756968 -3.5 L 161.1063196756968 -0.5 L 110.2758160878484 -0.5 Z"/><text text-anchor="middle" pointer-events="none" font-size="8px" fill="#000000" x="93.0531598378484" y="3" transform="rotate(180 93.0531598378484 0)" font-family="sans-serif">ORIGIN</text></g><g class="relationship" transform="translate(219.21393933433444 5.451094019313407) rotate(320.91381223610784)"><path class="outline" fill="#A5ABB6" stroke="none" d="M 25 0.5 L 26.27042481813603 0.5 L 26.27042481813603 -0.5 L 25 -0.5 Z M 69.60636231813604 0.5 L 70.87678713627206 0.5 L 70.87678713627206 3.5 L 77.87678713627206 0 L 70.87678713627206 -3.5 L 70.87678713627206 -0.5 L 69.60636231813604 -0.5 Z"/><text text-anchor="middle" pointer-events="none" font-size="8px" fill="#000000" x="47.93839356813603" y="3" font-family="sans-serif">DESTIN…</text></g><g class="relationship" transform="translate(-39.27288425096425 58.77913535466618) rotate(392.3756735321771)"><path class="outline" fill="#A5ABB6" stroke="none" d="M 25 0.5 L 44.002539881740134 0.5 L 44.002539881740134 -0.5 L 25 -0.5 Z M 78.44785238174013 0.5 L 97.45039226348027 0.5 L 97.45039226348027 3.5 L 104.45039226348027 0 L 97.45039226348027 -3.5 L 97.45039226348027 -0.5 L 78.44785238174013 -0.5 Z"/><text text-anchor="middle" pointer-events="none" font-size="8px" fill="#000000" x="61.225196131740134" y="3" font-family="sans-serif">ORIGIN</text></g><g class="relationship" transform="translate(-39.27288425096425 58.77913535466618) rotate(216.93124326160768)"><path class="outline" fill="#A5ABB6" stroke="none" d="M 25 0.5 L 47.23944970691825 0.5 L 47.23944970691825 -0.5 L 25 -0.5 Z M 106.42694970691825 0.5 L 128.6663994138365 0.5 L 128.6663994138365 3.5 L 135.6663994138365 0 L 128.6663994138365 -3.5 L 128.6663994138365 -0.5 L 106.42694970691825 -0.5 Z"/><text text-anchor="middle" pointer-events="none" font-size="8px" fill="#000000" x="76.83319970691825" y="3" transform="rotate(180 76.83319970691825 0)" font-family="sans-serif">DESTINATION</text></g><g class="relationship" transform="translate(37.85327785138526 -32.188371145035745) rotate(438.64022289969955)"><path class="outline" fill="#A5ABB6" stroke="none" d="M 25 0.5 L 61.0207641548582 0.5 L 61.0207641548582 -0.5 L 25 -0.5 Z M 95.4660766548582 0.5 L 131.4868408097164 0.5 L 131.4868408097164 3.5 L 138.4868408097164 0 L 131.4868408097164 -3.5 L 131.4868408097164 -0.5 L 95.4660766548582 -0.5 Z"/><text text-anchor="middle" pointer-events="none" font-size="8px" fill="#000000" x="78.2434204048582" y="3" font-family="sans-serif">ORIGIN</text></g><g class="relationship" transform="translate(37.85327785138526 -32.188371145035745) rotate(254.82555272242865)"><path class="outline" fill="#A5ABB6" stroke="none" d="M 25 0.5 L 45.39284556445112 0.5 L 45.39284556445112 -0.5 L 25 -0.5 Z M 104.58034556445112 0.5 L 124.97319112890224 0.5 L 124.97319112890224 3.5 L 131.97319112890224 0 L 124.97319112890224 -3.5 L 124.97319112890224 -0.5 L 104.58034556445112 -0.5 Z"/><text text-anchor="middle" pointer-events="none" font-size="8px" fill="#000000" x="74.98659556445112" y="3" transform="rotate(180 74.98659556445112 0)" font-family="sans-serif">DESTINATION</text></g><g class="relationship" transform="translate(139.2728109758043 247.90100057722321) rotate(239.9827653326896)"><path class="outline" fill="#A5ABB6" stroke="none" d="M 25 0.5 L 48.458976982821056 0.5 L 48.458976982821056 -0.5 L 25 -0.5 Z M 82.90428948282106 0.5 L 106.36326646564211 0.5 L 106.36326646564211 3.5 L 113.36326646564211 0 L 106.36326646564211 -3.5 L 106.36326646564211 -0.5 L 82.90428948282106 -0.5 Z"/><text text-anchor="middle" pointer-events="none" font-size="8px" fill="#000000" x="65.68163323282106" y="3" transform="rotate(180 65.68163323282106 0)" font-family="sans-serif">ORIGIN</text></g><g class="relationship" transform="translate(139.2728109758043 247.90100057722321) rotate(467.3461808514495)"><path class="outline" fill="#A5ABB6" stroke="none" d="M 25 0.5 L 48.32999994173983 0.5 L 48.32999994173983 -0.5 L 25 -0.5 Z M 107.51749994173983 0.5 L 130.84749988347966 0.5 L 130.84749988347966 3.5 L 137.84749988347966 0 L 130.84749988347966 -3.5 L 130.84749988347966 -0.5 L 107.51749994173983 -0.5 Z"/><text text-anchor="middle" pointer-events="none" font-size="8px" fill="#000000" x="77.92374994173983" y="3" transform="rotate(180 77.92374994173983 0)" font-family="sans-serif">DESTINATION</text></g><g class="relationship" transform="translate(164.3827035963287 -18.58318317902435) rotate(482.74462024594834)"><path class="outline" fill="#A5ABB6" stroke="none" d="M 25 0.5 L 66.47308359061167 0.5 L 66.47308359061167 -0.5 L 25 -0.5 Z M 100.91839609061167 0.5 L 142.39147968122333 0.5 L 142.39147968122333 3.5 L 149.39147968122333 0 L 142.39147968122333 -3.5 L 142.39147968122333 -0.5 L 100.91839609061167 -0.5 Z"/><text text-anchor="middle" pointer-events="none" font-size="8px" fill="#000000" x="83.69573984061167" y="3" transform="rotate(180 83.69573984061167 0)" font-family="sans-serif">ORIGIN</text></g><g class="relationship" transform="translate(164.3827035963287 -18.58318317902435) rotate(343.1357447403892)"><path class="outline" fill="#A5ABB6" stroke="none" d="M 25 0.5 L 37.274470187471735 0.5 L 37.274470187471735 -0.5 L 25 -0.5 Z M 96.46197018747174 0.5 L 108.73644037494347 0.5 L 108.73644037494347 3.5 L 115.73644037494347 0 L 108.73644037494347 -3.5 L 108.73644037494347 -0.5 L 96.46197018747174 -0.5 Z"/><text text-anchor="middle" pointer-events="none" font-size="8px" fill="#000000" x="66.86822018747174" y="3" font-family="sans-serif">DESTINATION</text></g><g class="relationship" transform="translate(-29.967720074496114 -7.6101322628540915) rotate(413.60769246126074)"><path class="outline" fill="#A5ABB6" stroke="none" d="M 25 0.5 L 63.56946699622641 0.5 L 63.56946699622641 -0.5 L 25 -0.5 Z M 98.01477949622641 0.5 L 136.58424649245282 0.5 L 136.58424649245282 3.5 L 143.58424649245282 0 L 136.58424649245282 -3.5 L 136.58424649245282 -0.5 L 98.01477949622641 -0.5 Z"/><text text-anchor="middle" pointer-events="none" font-size="8px" fill="#000000" x="80.79212324622641" y="3" font-family="sans-serif">ORIGIN</text></g><g class="relationship" transform="translate(-29.967720074496114 -7.6101322628540915) rotate(192.34647285869931)"><path class="outline" fill="#A5ABB6" stroke="none" d="M 25 0.5 L 37.40419194184568 0.5 L 37.40419194184568 -0.5 L 25 -0.5 Z M 96.59169194184568 0.5 L 108.99588388369136 0.5 L 108.99588388369136 3.5 L 115.99588388369136 0 L 108.99588388369136 -3.5 L 108.99588388369136 -0.5 L 96.59169194184568 -0.5 Z"/><text text-anchor="middle" pointer-events="none" font-size="8px" fill="#000000" x="66.99794194184568" y="3" transform="rotate(180 66.99794194184568 0)" font-family="sans-serif">DESTINATION</text></g><g class="relationship" transform="translate(53.40023550207847 306.14387256683267) rotate(275.34398575101073)"><path class="outline" fill="#A5ABB6" stroke="none" d="M 25 0.5 L 68.69005696638892 0.5 L 68.69005696638892 -0.5 L 25 -0.5 Z M 103.13536946638892 0.5 L 146.82542643277785 0.5 L 146.82542643277785 3.5 L 153.82542643277785 0 L 146.82542643277785 -3.5 L 146.82542643277785 -0.5 L 103.13536946638892 -0.5 Z"/><text text-anchor="middle" pointer-events="none" font-size="8px" fill="#000000" x="85.91271321638892" y="3" font-family="sans-serif">ORIGIN</text></g><g class="relationship" transform="translate(53.40023550207847 306.14387256683267) rotate(428.9951054342599)"><path class="outline" fill="#A5ABB6" stroke="none" d="M 25 0.5 L 26.890557429986686 0.5 L 26.890557429986686 -0.5 L 25 -0.5 Z M 70.22649492998669 0.5 L 72.11705235997337 0.5 L 72.11705235997337 3.5 L 79.11705235997337 0 L 72.11705235997337 -3.5 L 72.11705235997337 -0.5 L 70.22649492998669 -0.5 Z"/><text text-anchor="middle" pointer-events="none" font-size="8px" fill="#000000" x="48.558526179986686" y="3" font-family="sans-serif">DESTIN…</text></g><g class="relationship" transform="translate(-70.31328286442785 215.38142221005089) rotate(328.1252892428149)"><path class="outline" fill="#A5ABB6" stroke="none" d="M 25 0.5 L 61.92431655333918 0.5 L 61.92431655333918 -0.5 L 25 -0.5 Z M 96.36962905333918 0.5 L 133.29394560667836 0.5 L 133.29394560667836 3.5 L 140.29394560667836 0 L 133.29394560667836 -3.5 L 133.29394560667836 -0.5 L 96.36962905333918 -0.5 Z"/><text text-anchor="middle" pointer-events="none" font-size="8px" fill="#000000" x="79.14697280333918" y="3" font-family="sans-serif">ORIGIN</text></g><g class="relationship" transform="translate(-70.31328286442785 215.38142221005089) rotate(530.3145919168855)"><path class="outline" fill="#A5ABB6" stroke="none" d="M 25 0.5 L 35.091805505000536 0.5 L 35.091805505000536 -0.5 L 25 -0.5 Z M 94.27930550500054 0.5 L 104.37111101000107 0.5 L 104.37111101000107 3.5 L 111.37111101000107 0 L 104.37111101000107 -3.5 L 104.37111101000107 -0.5 L 94.27930550500054 -0.5 Z"/><text text-anchor="middle" pointer-events="none" font-size="8px" fill="#000000" x="64.68555550500054" y="3" transform="rotate(180 64.68555550500054 0)" font-family="sans-serif">DESTINATION</text></g><g class="relationship" transform="translate(-92.69102041089278 159.80784672317523) rotate(348.97371608354865)"><path class="outline" fill="#A5ABB6" stroke="none" d="M 25 0.5 L 62.18085878191532 0.5 L 62.18085878191532 -0.5 L 25 -0.5 Z M 96.62617128191532 0.5 L 133.80703006383064 0.5 L 133.80703006383064 3.5 L 140.80703006383064 0 L 133.80703006383064 -3.5 L 133.80703006383064 -0.5 L 96.62617128191532 -0.5 Z"/><text text-anchor="middle" pointer-events="none" font-size="8px" fill="#000000" x="79.40351503191532" y="3" font-family="sans-serif">ORIGIN</text></g><g class="relationship" transform="translate(-92.69102041089278 159.80784672317523) rotate(504.97994665254055)"><path class="outline" fill="#A5ABB6" stroke="none" d="M 25 0.5 L 35.31666383040684 0.5 L 35.31666383040684 -0.5 L 25 -0.5 Z M 94.50416383040684 0.5 L 104.82082766081368 0.5 L 104.82082766081368 3.5 L 111.82082766081368 0 L 104.82082766081368 -3.5 L 104.82082766081368 -0.5 L 94.50416383040684 -0.5 Z"/><text text-anchor="middle" pointer-events="none" font-size="8px" fill="#000000" x="64.91041383040684" y="3" transform="rotate(180 64.91041383040684 0)" font-family="sans-serif">DESTINATION</text></g><g class="relationship" transform="translate(19.697923153546064 256.77002590738573) rotate(291.37309182770593)"><path class="outline" fill="#A5ABB6" stroke="none" d="M 25 0.5 L 48.36592453934614 0.5 L 48.36592453934614 -0.5 L 25 -0.5 Z M 82.81123703934614 0.5 L 106.17716157869228 0.5 L 106.17716157869228 3.5 L 113.17716157869228 0 L 106.17716157869228 -3.5 L 106.17716157869228 -0.5 L 82.81123703934614 -0.5 Z"/><text text-anchor="middle" pointer-events="none" font-size="8px" fill="#000000" x="65.58858078934614" y="3" font-family="sans-serif">ORIGIN</text></g><g class="relationship" transform="translate(19.697923153546064 256.77002590738573) rotate(424.14710484001483)"><path class="outline" fill="#A5ABB6" stroke="none" d="M 25 0.5 L 48.34285395450959 0.5 L 48.34285395450959 -0.5 L 25 -0.5 Z M 107.5303539545096 0.5 L 130.8732079090192 0.5 L 130.8732079090192 3.5 L 137.8732079090192 0 L 130.8732079090192 -3.5 L 130.8732079090192 -0.5 L 107.5303539545096 -0.5 Z"/><text text-anchor="middle" pointer-events="none" font-size="8px" fill="#000000" x="77.9366039545096" y="3" font-family="sans-serif">DESTINATION</text></g><g class="relationship" transform="translate(-83.67642711665235 18.86740931070603) rotate(395.3942958213645)"><path class="outline" fill="#A5ABB6" stroke="none" d="M 25 0.5 L 73.56972939185462 0.5 L 73.56972939185462 -0.5 L 25 -0.5 Z M 108.01504189185462 0.5 L 156.58477128370924 0.5 L 156.58477128370924 3.5 L 163.58477128370924 0 L 156.58477128370924 -3.5 L 156.58477128370924 -0.5 L 108.01504189185462 -0.5 Z"/><text text-anchor="middle" pointer-events="none" font-size="8px" fill="#000000" x="90.79238564185462" y="3" font-family="sans-serif">ORIGIN</text></g><g class="relationship" transform="translate(-83.67642711665235 18.86740931070603) rotate(213.97619898809876)"><path class="outline" fill="#A5ABB6" stroke="none" d="M 25 0.5 L 25.494849335497236 0.5 L 25.494849335497236 -0.5 L 25 -0.5 Z M 68.83078683549724 0.5 L 69.32563617099447 0.5 L 69.32563617099447 3.5 L 76.32563617099447 0 L 69.32563617099447 -3.5 L 69.32563617099447 -0.5 L 68.83078683549724 -0.5 Z"/><text text-anchor="middle" pointer-events="none" font-size="8px" fill="#000000" x="47.162818085497236" y="3" transform="rotate(180 47.162818085497236 0)" font-family="sans-serif">DESTIN…</text></g><g class="relationship" transform="translate(-96.18045193719303 77.4868200958876) rotate(376.9323872381008)"><path class="outline" fill="#A5ABB6" stroke="none" d="M 25 0.5 L 66.16165042610389 0.5 L 66.16165042610389 -0.5 L 25 -0.5 Z M 100.60696292610389 0.5 L 141.76861335220778 0.5 L 141.76861335220778 3.5 L 148.76861335220778 0 L 141.76861335220778 -3.5 L 141.76861335220778 -0.5 L 100.60696292610389 -0.5 Z"/><text text-anchor="middle" pointer-events="none" font-size="8px" fill="#000000" x="83.38430667610389" y="3" font-family="sans-serif">ORIGIN</text></g><g class="relationship" transform="translate(-96.18045193719303 77.4868200958876) rotate(238.17584426768002)"><path class="outline" fill="#A5ABB6" stroke="none" d="M 25 0.5 L 34.7237707391358 0.5 L 34.7237707391358 -0.5 L 25 -0.5 Z M 93.9112707391358 0.5 L 103.6350414782716 0.5 L 103.6350414782716 3.5 L 110.6350414782716 0 L 103.6350414782716 -3.5 L 103.6350414782716 -0.5 L 93.9112707391358 -0.5 Z"/><text text-anchor="middle" pointer-events="none" font-size="8px" fill="#000000" x="64.3175207391358" y="3" transform="rotate(180 64.3175207391358 0)" font-family="sans-serif">DESTINATION</text></g><g class="relationship" transform="translate(-6.405263898383241 310.565875997091) rotate(292.73512698085216)"><path class="outline" fill="#A5ABB6" stroke="none" d="M 25 0.5 L 78.1984658166988 0.5 L 78.1984658166988 -0.5 L 25 -0.5 Z M 112.6437783166988 0.5 L 165.8422441333976 0.5 L 165.8422441333976 3.5 L 172.8422441333976 0 L 165.8422441333976 -3.5 L 165.8422441333976 -0.5 L 112.6437783166988 -0.5 Z"/><text text-anchor="middle" pointer-events="none" font-size="8px" fill="#000000" x="95.4211220666988" y="3" font-family="sans-serif">ORIGIN</text></g><g class="relationship" transform="translate(-6.405263898383241 310.565875997091) rotate(403.6879147001868)"><path class="outline" fill="#A5ABB6" stroke="none" d="M 25 0.5 L 34.064520344020096 0.5 L 34.064520344020096 -0.5 L 25 -0.5 Z M 93.2520203440201 0.5 L 102.31654068804019 0.5 L 102.31654068804019 3.5 L 109.31654068804019 0 L 102.31654068804019 -3.5 L 102.31654068804019 -0.5 L 93.2520203440201 -0.5 Z"/><text text-anchor="middle" pointer-events="none" font-size="8px" fill="#000000" x="63.658270344020096" y="3" font-family="sans-serif">DESTINATION</text></g><g class="relationship" transform="translate(229.72391033254715 64.39856961943197) rotate(518.2513121784322)"><path class="outline" fill="#A5ABB6" stroke="none" d="M 25 0.5 L 65.23000973881065 0.5 L 65.23000973881065 -0.5 L 25 -0.5 Z M 99.67532223881065 0.5 L 139.9053319776213 0.5 L 139.9053319776213 3.5 L 146.9053319776213 0 L 139.9053319776213 -3.5 L 139.9053319776213 -0.5 L 99.67532223881065 -0.5 Z"/><text text-anchor="middle" pointer-events="none" font-size="8px" fill="#000000" x="82.45266598881065" y="3" transform="rotate(180 82.45266598881065 0)" font-family="sans-serif">ORIGIN</text></g><g class="relationship" transform="translate(229.72391033254715 64.39856961943197) rotate(299.25205214415536)"><path class="outline" fill="#A5ABB6" stroke="none" d="M 25 0.5 L 37.85936083951344 0.5 L 37.85936083951344 -0.5 L 25 -0.5 Z M 97.04686083951344 0.5 L 109.90622167902688 0.5 L 109.90622167902688 3.5 L 116.90622167902688 0 L 109.90622167902688 -3.5 L 109.90622167902688 -0.5 L 97.04686083951344 -0.5 Z"/><text text-anchor="middle" pointer-events="none" font-size="8px" fill="#000000" x="67.45311083951344" y="3" font-family="sans-serif">DESTINATION</text></g><g class="relationship" transform="translate(171.13301466294496 40.95448160104305) rotate(499.23472691362633)"><path class="outline" fill="#A5ABB6" stroke="none" d="M 25 0.5 L 46.00502060609156 0.5 L 46.00502060609156 -0.5 L 25 -0.5 Z M 80.45033310609156 0.5 L 101.45535371218313 0.5 L 101.45535371218313 3.5 L 108.45535371218313 0 L 101.45535371218313 -3.5 L 101.45535371218313 -0.5 L 80.45033310609156 -0.5 Z"/><text text-anchor="middle" pointer-events="none" font-size="8px" fill="#000000" x="63.22767685609156" y="3" transform="rotate(180 63.22767685609156 0)" font-family="sans-serif">ORIGIN</text></g><g class="relationship" transform="translate(171.13301466294496 40.95448160104305) rotate(321.8852520818821)"><path class="outline" fill="#A5ABB6" stroke="none" d="M 25 0.5 L 48.20874053349628 0.5 L 48.20874053349628 -0.5 L 25 -0.5 Z M 107.39624053349628 0.5 L 130.60498106699256 0.5 L 130.60498106699256 3.5 L 137.60498106699256 0 L 130.60498106699256 -3.5 L 130.60498106699256 -0.5 L 107.39624053349628 -0.5 Z"/><text text-anchor="middle" pointer-events="none" font-size="8px" fill="#000000" x="77.80249053349628" y="3" font-family="sans-serif">DESTINATION</text></g></g><g class="layer nodes"><g class="node" transform="translate(70.05513697885293,128.09571224029693)"><circle class="outline" cx="0" cy="0" r="25" fill="#ECB5C9" stroke="#da7298" stroke-width="2px"/><text text-anchor="middle" pointer-events="none" font-family="sans-serif" dy="1.5625" font-size="25" fill="#2A2C34"/><text text-anchor="middle" pointer-events="none" x="0" y="5" font-size="10px" fill="#2A2C34" font-family="sans-serif"> LAX</text></g><g class="node" transform="translate(391.6116126831179,116.26444591893872)"><circle class="outline" cx="0" cy="0" r="25" fill="#ECB5C9" stroke="#da7298" stroke-width="2px"/><text text-anchor="middle" pointer-events="none" font-family="sans-serif" dy="1.5625" font-size="25" fill="#2A2C34"/><text text-anchor="middle" pointer-events="none" x="0" y="5" font-size="10px" fill="#2A2C34" font-family="sans-serif"> LAS</text></g><g class="node" transform="translate(90.72075350830617,403.34232691604683)"><circle class="outline" cx="0" cy="0" r="25" fill="#ECB5C9" stroke="#da7298" stroke-width="2px"/><text text-anchor="middle" pointer-events="none" font-family="sans-serif" dy="1.5625" font-size="25" fill="#2A2C34"/><text text-anchor="middle" pointer-events="none" x="0" y="5" font-size="10px" fill="#2A2C34" font-family="sans-serif"> ABQ</text></g><g class="node" transform="translate(362.74003437174497,265.4836867102626)"><circle class="outline" cx="0" cy="0" r="25" fill="#ECB5C9" stroke="#da7298" stroke-width="2px"/><text text-anchor="middle" pointer-events="none" font-family="sans-serif" dy="1.5625" font-size="25" fill="#2A2C34"/><text text-anchor="middle" pointer-events="none" x="0" y="5" font-size="10px" fill="#2A2C34" font-family="sans-serif"> IAH</text></g><g class="node" transform="translate(135.529070413588,-187.1525725230541)"><circle class="outline" cx="0" cy="0" r="25" fill="#ECB5C9" stroke="#da7298" stroke-width="2px"/><text text-anchor="middle" pointer-events="none" font-family="sans-serif" dy="1.5625" font-size="25" fill="#2A2C34"/><text text-anchor="middle" pointer-events="none" x="0" y="5" font-size="10px" fill="#2A2C34" font-family="sans-serif"> EWR</text></g><g class="node" transform="translate(299.06673905675495,-59.41155862435229)"><circle class="outline" cx="0" cy="0" r="25" fill="#ECB5C9" stroke="#da7298" stroke-width="2px"/><text text-anchor="middle" pointer-events="none" font-family="sans-serif" dy="1.5625" font-size="25" fill="#2A2C34"/><text text-anchor="middle" pointer-events="none" x="0" y="5" font-size="10px" fill="#2A2C34" font-family="sans-serif"> FAT</text></g><g class="node" transform="translate(-167.70271646174436,-37.7582672358185)"><circle class="outline" cx="0" cy="0" r="25" fill="#ECB5C9" stroke="#da7298" stroke-width="2px"/><text text-anchor="middle" pointer-events="none" font-family="sans-serif" dy="1.5625" font-size="25" fill="#2A2C34"/><text text-anchor="middle" pointer-events="none" x="0" y="5" font-size="10px" fill="#2A2C34" font-family="sans-serif"> SMF</text></g><g class="node" transform="translate(-3.2358324221160935,-183.68842972628818)"><circle class="outline" cx="0" cy="0" r="25" fill="#ECB5C9" stroke="#da7298" stroke-width="2px"/><text text-anchor="middle" pointer-events="none" font-family="sans-serif" dy="1.5625" font-size="25" fill="#2A2C34"/><text text-anchor="middle" pointer-events="none" x="0" y="5" font-size="10px" fill="#2A2C34" font-family="sans-serif"> BOS</text></g><g class="node" transform="translate(-204.7406074457611,238.32427129221395)"><circle class="outline" cx="0" cy="0" r="25" fill="#ECB5C9" stroke="#da7298" stroke-width="2px"/><text text-anchor="middle" pointer-events="none" font-family="sans-serif" dy="1.5625" font-size="25" fill="#2A2C34"/><text text-anchor="middle" pointer-events="none" x="0" y="5" font-size="10px" fill="#2A2C34" font-family="sans-serif"> TUS</text></g><g class="node" transform="translate(235.45800402253963,131.94369244127532)"><circle class="outline" cx="0" cy="0" r="25" fill="#4C8EDA" stroke="#2870c2" stroke-width="2px"/><text text-anchor="middle" pointer-events="none" font-family="sans-serif" dy="1.5625" font-size="25" fill="#FFFFFF"/><text text-anchor="middle" pointer-events="none" x="0" y="5" font-size="10px" fill="#FFFFFF" font-family="sans-serif"> 11/29/20…</text></g><g class="node" transform="translate(172.94295942057852,297.29411252982896)"><circle class="outline" cx="0" cy="0" r="25" fill="#4C8EDA" stroke="#2870c2" stroke-width="2px"/><text text-anchor="middle" pointer-events="none" font-family="sans-serif" dy="1.5625" font-size="25" fill="#FFFFFF"/><text text-anchor="middle" pointer-events="none" x="0" y="5" font-size="10px" fill="#FFFFFF" font-family="sans-serif"> 11/3/2015</text></g><g class="node" transform="translate(79.4697406793138,252.27517736580455)"><circle class="outline" cx="0" cy="0" r="25" fill="#4C8EDA" stroke="#2870c2" stroke-width="2px"/><text text-anchor="middle" pointer-events="none" font-family="sans-serif" dy="1.5625" font-size="25" fill="#FFFFFF"/><text text-anchor="middle" pointer-events="none" x="0" y="5" font-size="10px" fill="#FFFFFF" font-family="sans-serif"> 11/1/2015</text></g><g class="node" transform="translate(223.69524502452197,196.66010955944117)"><circle class="outline" cx="0" cy="0" r="25" fill="#4C8EDA" stroke="#2870c2" stroke-width="2px"/><text text-anchor="middle" pointer-events="none" font-family="sans-serif" dy="1.5625" font-size="25" fill="#FFFFFF"/><text text-anchor="middle" pointer-events="none" x="0" y="5" font-size="10px" fill="#FFFFFF" font-family="sans-serif"> 11/30/20…</text></g><g class="node" transform="translate(113.14096288001633,301.7344735993188)"><circle class="outline" cx="0" cy="0" r="25" fill="#4C8EDA" stroke="#2870c2" stroke-width="2px"/><text text-anchor="middle" pointer-events="none" font-family="sans-serif" dy="1.5625" font-size="25" fill="#FFFFFF"/><text text-anchor="middle" pointer-events="none" x="0" y="5" font-size="10px" fill="#FFFFFF" font-family="sans-serif"> 11/4/2015</text></g><g class="node" transform="translate(97.84454115461384,-32.27882497091585)"><circle class="outline" cx="0" cy="0" r="25" fill="#4C8EDA" stroke="#2870c2" stroke-width="2px"/><text text-anchor="middle" pointer-events="none" font-family="sans-serif" dy="1.5625" font-size="25" fill="#FFFFFF"/><text text-anchor="middle" pointer-events="none" x="0" y="5" font-size="10px" fill="#FFFFFF" font-family="sans-serif"> 11/29/20…</text></g><g class="node" transform="translate(219.21393933433444,5.451094019313407)"><circle class="outline" cx="0" cy="0" r="25" fill="#4C8EDA" stroke="#2870c2" stroke-width="2px"/><text text-anchor="middle" pointer-events="none" font-family="sans-serif" dy="1.5625" font-size="25" fill="#FFFFFF"/><text text-anchor="middle" pointer-events="none" x="0" y="5" font-size="10px" fill="#FFFFFF" font-family="sans-serif"> 11/2/2015</text></g><g class="node" transform="translate(-39.27288425096425,58.77913535466618)"><circle class="outline" cx="0" cy="0" r="25" fill="#4C8EDA" stroke="#2870c2" stroke-width="2px"/><text text-anchor="middle" pointer-events="none" font-family="sans-serif" dy="1.5625" font-size="25" fill="#FFFFFF"/><text text-anchor="middle" pointer-events="none" x="0" y="5" font-size="10px" fill="#FFFFFF" font-family="sans-serif"> 11/3/2015</text></g><g class="node" transform="translate(37.85327785138526,-32.188371145035745)"><circle class="outline" cx="0" cy="0" r="25" fill="#4C8EDA" stroke="#2870c2" stroke-width="2px"/><text text-anchor="middle" pointer-events="none" font-family="sans-serif" dy="1.5625" font-size="25" fill="#FFFFFF"/><text text-anchor="middle" pointer-events="none" x="0" y="5" font-size="10px" fill="#FFFFFF" font-family="sans-serif"> 11/29/20…</text></g><g class="node" transform="translate(139.2728109758043,247.90100057722321)"><circle class="outline" cx="0" cy="0" r="25" fill="#4C8EDA" stroke="#2870c2" stroke-width="2px"/><text text-anchor="middle" pointer-events="none" font-family="sans-serif" dy="1.5625" font-size="25" fill="#FFFFFF"/><text text-anchor="middle" pointer-events="none" x="0" y="5" font-size="10px" fill="#FFFFFF" font-family="sans-serif"> 11/2/2015</text></g><g class="node" transform="translate(164.3827035963287,-18.58318317902435)"><circle class="outline" cx="0" cy="0" r="25" fill="#4C8EDA" stroke="#2870c2" stroke-width="2px"/><text text-anchor="middle" pointer-events="none" font-family="sans-serif" dy="1.5625" font-size="25" fill="#FFFFFF"/><text text-anchor="middle" pointer-events="none" x="0" y="5" font-size="10px" fill="#FFFFFF" font-family="sans-serif"> 11/3/2015</text></g><g class="node" transform="translate(-29.967720074496114,-7.6101322628540915)"><circle class="outline" cx="0" cy="0" r="25" fill="#4C8EDA" stroke="#2870c2" stroke-width="2px"/><text text-anchor="middle" pointer-events="none" font-family="sans-serif" dy="1.5625" font-size="25" fill="#FFFFFF"/><text text-anchor="middle" pointer-events="none" x="0" y="5" font-size="10px" fill="#FFFFFF" font-family="sans-serif"> 11/1/2015</text></g><g class="node" transform="translate(53.40023550207847,306.14387256683267)"><circle class="outline" cx="0" cy="0" r="25" fill="#4C8EDA" stroke="#2870c2" stroke-width="2px"/><text text-anchor="middle" pointer-events="none" font-family="sans-serif" dy="1.5625" font-size="25" fill="#FFFFFF"/><text text-anchor="middle" pointer-events="none" x="0" y="5" font-size="10px" fill="#FFFFFF" font-family="sans-serif"> 11/2/2015</text></g><g class="node" transform="translate(-70.31328286442785,215.38142221005089)"><circle class="outline" cx="0" cy="0" r="25" fill="#4C8EDA" stroke="#2870c2" stroke-width="2px"/><text text-anchor="middle" pointer-events="none" font-family="sans-serif" dy="1.5625" font-size="25" fill="#FFFFFF"/><text text-anchor="middle" pointer-events="none" x="0" y="5" font-size="10px" fill="#FFFFFF" font-family="sans-serif"> 11/2/2015</text></g><g class="node" transform="translate(-92.69102041089278,159.80784672317523)"><circle class="outline" cx="0" cy="0" r="25" fill="#4C8EDA" stroke="#2870c2" stroke-width="2px"/><text text-anchor="middle" pointer-events="none" font-family="sans-serif" dy="1.5625" font-size="25" fill="#FFFFFF"/><text text-anchor="middle" pointer-events="none" x="0" y="5" font-size="10px" fill="#FFFFFF" font-family="sans-serif"> 11/1/2015</text></g><g class="node" transform="translate(19.697923153546064,256.77002590738573)"><circle class="outline" cx="0" cy="0" r="25" fill="#4C8EDA" stroke="#2870c2" stroke-width="2px"/><text text-anchor="middle" pointer-events="none" font-family="sans-serif" dy="1.5625" font-size="25" fill="#FFFFFF"/><text text-anchor="middle" pointer-events="none" x="0" y="5" font-size="10px" fill="#FFFFFF" font-family="sans-serif"> 11/3/2015</text></g><g class="node" transform="translate(-83.67642711665235,18.86740931070603)"><circle class="outline" cx="0" cy="0" r="25" fill="#4C8EDA" stroke="#2870c2" stroke-width="2px"/><text text-anchor="middle" pointer-events="none" font-family="sans-serif" dy="1.5625" font-size="25" fill="#FFFFFF"/><text text-anchor="middle" pointer-events="none" x="0" y="5" font-size="10px" fill="#FFFFFF" font-family="sans-serif"> 11/4/2015</text></g><g class="node" transform="translate(-96.18045193719303,77.4868200958876)"><circle class="outline" cx="0" cy="0" r="25" fill="#4C8EDA" stroke="#2870c2" stroke-width="2px"/><text text-anchor="middle" pointer-events="none" font-family="sans-serif" dy="1.5625" font-size="25" fill="#FFFFFF"/><text text-anchor="middle" pointer-events="none" x="0" y="5" font-size="10px" fill="#FFFFFF" font-family="sans-serif"> 11/2/2015</text></g><g class="node" transform="translate(-6.405263898383241,310.565875997091)"><circle class="outline" cx="0" cy="0" r="25" fill="#4C8EDA" stroke="#2870c2" stroke-width="2px"/><text text-anchor="middle" pointer-events="none" font-family="sans-serif" dy="1.5625" font-size="25" fill="#FFFFFF"/><text text-anchor="middle" pointer-events="none" x="0" y="5" font-size="10px" fill="#FFFFFF" font-family="sans-serif"> 11/1/2015</text></g><g class="node" transform="translate(229.72391033254715,64.39856961943197)"><circle class="outline" cx="0" cy="0" r="25" fill="#4C8EDA" stroke="#2870c2" stroke-width="2px"/><text text-anchor="middle" pointer-events="none" font-family="sans-serif" dy="1.5625" font-size="25" fill="#FFFFFF"/><text text-anchor="middle" pointer-events="none" x="0" y="5" font-size="10px" fill="#FFFFFF" font-family="sans-serif"> 11/1/2015</text></g><g class="node" transform="translate(171.13301466294496,40.95448160104305)"><circle class="outline" cx="0" cy="0" r="25" fill="#4C8EDA" stroke="#2870c2" stroke-width="2px"/><text text-anchor="middle" pointer-events="none" font-family="sans-serif" dy="1.5625" font-size="25" fill="#FFFFFF"/><text text-anchor="middle" pointer-events="none" x="0" y="5" font-size="10px" fill="#FFFFFF" font-family="sans-serif"> 11/4/2015</text></g></g></svg>