<svg xmlns="http://www.w3.org/2000/svg" width="268.8175048828125" height="289.1243591308594" viewBox="-30.974990844726562 -40.309959411621094 268.8175048828125 289.1243591308594"><title>Neo4j Graph Visualization</title><desc>Created using Neo4j (http://www.neo4j.com/)</desc><g class="layer relationships"><g class="relationship" transform="translate(116.53818980637284 -11.309958394095432) rotate(391.627445007047)"><path class="outline" fill="#A5ABB6" stroke="none" d="M 25 0.5 L 33.47989556773426 0.5 L 33.47989556773426 -0.5 L 25 -0.5 Z M 67.92520806773426 0.5 L 76.40510363546852 0.5 L 76.40510363546852 3.5 L 83.40510363546852 0 L 76.40510363546852 -3.5 L 76.40510363546852 -0.5 L 67.92520806773426 -0.5 Z"/><text text-anchor="middle" pointer-events="none" font-size="8px" fill="#000000" x="50.70255181773426" y="3" font-family="sans-serif">ORIGIN</text></g><g class="relationship" transform="translate(116.53818980637284 -11.309958394095432) rotate(509.83508389589565)"><path class="outline" fill="#A5ABB6" stroke="none" d="M 25 0.5 L 26.041095894600716 0.5 L 26.041095894600716 -0.5 L 25 -0.5 Z M 74.71297089460072 0.5 L 75.75406678920143 0.5 L 75.75406678920143 3.5 L 82.75406678920143 0 L 75.75406678920143 -3.5 L 75.75406678920143 -0.5 L 74.71297089460072 -0.5 Z"/><text text-anchor="middle" pointer-events="none" font-size="8px" fill="#000000" x="50.377033394600716" y="3" transform="rotate(180 50.377033394600716 0)" font-family="sans-serif">DESTINA…</text></g><g class="relationship" transform="translate(-1.974990474659503 147.55020157932788) rotate(283.6091586531337)"><path class="outline" fill="#A5ABB6" stroke="none" d="M 25 0.5 L 33.14720160460221 0.5 L 33.14720160460221 -0.5 L 25 -0.5 Z M 67.5925141046022 0.5 L 75.73971570920442 0.5 L 75.73971570920442 3.5 L 82.73971570920442 0 L 75.73971570920442 -3.5 L 75.73971570920442 -0.5 L 67.5925141046022 -0.5 Z"/><text text-anchor="middle" pointer-events="none" font-size="8px" fill="#000000" x="50.36985785460221" y="3" font-family="sans-serif">ORIGIN</text></g><g class="relationship" transform="translate(-1.974990474659503 147.55020157932788) rotate(401.81572118990783)"><path class="outline" fill="#A5ABB6" stroke="none" d="M 25 0.5 L 26.35649066334782 0.5 L 26.35649066334782 -0.5 L 25 -0.5 Z M 75.02836566334781 0.5 L 76.38485632669564 0.5 L 76.38485632669564 3.5 L 83.38485632669564 0 L 76.38485632669564 -3.5 L 76.38485632669564 -0.5 L 75.02836566334781 -0.5 Z"/><text text-anchor="middle" pointer-events="none" font-size="8px" fill="#000000" x="50.69242816334782" y="3" font-family="sans-serif">DESTINA…</text></g></g><g class="layer nodes"><g class="node" transform="translate(208.84251693835864,45.53700886826626)"><circle class="outline" cx="0" cy="0" r="25" fill="#ECB5C9" stroke="#da7298" stroke-width="2px"/><text text-anchor="middle" pointer-events="none" font-family="sans-serif" dy="1.5625" font-size="25" fill="#2A2C34"/><text text-anchor="middle" pointer-events="none" x="0" y="5" font-size="10px" fill="#2A2C34" font-family="sans-serif"> MSN</text></g><g class="node" transform="translate(78.80349336607755,219.81439485200087)"><circle class="outline" cx="0" cy="0" r="25" fill="#ECB5C9" stroke="#da7298" stroke-width="2px"/><text text-anchor="middle" pointer-events="none" font-family="sans-serif" dy="1.5625" font-size="25" fill="#2A2C34"/><text text-anchor="middle" pointer-events="none" x="0" y="5" font-size="10px" fill="#2A2C34" font-family="sans-serif"> GRR</text></g><g class="node" transform="translate(116.53818980637284,-11.309958394095432)"><circle class="outline" cx="0" cy="0" r="25" fill="#4C8EDA" stroke="#2870c2" stroke-width="2px"/><text text-anchor="middle" pointer-events="none" font-family="sans-serif" dy="1.5625" font-size="25" fill="#FFFFFF"/><text text-anchor="middle" pointer-events="none" x="0" y="5" font-size="10px" fill="#FFFFFF" font-family="sans-serif"> 11/30/20…</text></g><g class="node" transform="translate(23.37589277788419,42.83545066325068)"><circle class="outline" cx="0" cy="0" r="25" fill="#ECB5C9" stroke="#da7298" stroke-width="2px"/><text text-anchor="middle" pointer-events="none" font-family="sans-serif" dy="1.5625" font-size="25" fill="#2A2C34"/><text text-anchor="middle" pointer-events="none" x="0" y="5" font-size="10px" fill="#2A2C34" font-family="sans-serif"> ORD</text></g><g class="node" transform="translate(-1.974990474659503,147.55020157932788)"><circle class="outline" cx="0" cy="0" r="25" fill="#4C8EDA" stroke="#2870c2" stroke-width="2px"/><text text-anchor="middle" pointer-events="none" font-family="sans-serif" dy="1.5625" font-size="25" fill="#FFFFFF"/><text text-anchor="middle" pointer-events="none" x="0" y="5" font-size="10px" fill="#FFFFFF" font-family="sans-serif"> 11/17/20…</text></g></g></svg>